<svg width="62" height="20" viewBox="0 0 62 20" fill="none" xmlns="http://www.w3.org/2000/svg">
<mask id="path-1-inside-1_1_727" fill="white">
<path fill-rule="evenodd" clip-rule="evenodd" d="M4 0C1.79086 0 0 1.79086 0 4V16C0 18.2091 1.79086 20 4 20H52.3199V19.9802C52.8242 19.9806 53.3286 19.7823 53.7133 19.3852L61.4189 11.4322C62.1875 10.6389 62.1875 9.3527 61.4189 8.55941L53.7133 0.606364C53.3286 0.209272 52.8242 0.0109489 52.3199 0.0113957V0H4Z"/>
</mask>
<path fill-rule="evenodd" clip-rule="evenodd" d="M4 0C1.79086 0 0 1.79086 0 4V16C0 18.2091 1.79086 20 4 20H52.3199V19.9802C52.8242 19.9806 53.3286 19.7823 53.7133 19.3852L61.4189 11.4322C62.1875 10.6389 62.1875 9.3527 61.4189 8.55941L53.7133 0.606364C53.3286 0.209272 52.8242 0.0109489 52.3199 0.0113957V0H4Z" fill="white"/>
<path d="M52.3199 20V21H53.3199V20H52.3199ZM52.3199 19.9802L52.3208 18.9802L51.3199 18.9793V19.9802H52.3199ZM53.7133 19.3852L52.9951 18.6894L52.9951 18.6894L53.7133 19.3852ZM61.4189 11.4322L62.1371 12.128L62.1371 12.128L61.4189 11.4322ZM61.4189 8.55941L60.7007 9.25525L60.7007 9.25525L61.4189 8.55941ZM53.7133 0.606364L54.4315 -0.0894818L54.4315 -0.0894827L53.7133 0.606364ZM52.3199 0.0113957H51.3199V1.01228L52.3208 1.0114L52.3199 0.0113957ZM52.3199 0H53.3199V-1H52.3199V0ZM1 4C1 2.34315 2.34315 1 4 1V-1C1.23858 -1 -1 1.23858 -1 4H1ZM1 16V4H-1V16H1ZM4 19C2.34315 19 1 17.6569 1 16H-1C-1 18.7614 1.23858 21 4 21V19ZM52.3199 19H4V21H52.3199V19ZM51.3199 19.9802V20H53.3199V19.9802H51.3199ZM52.9951 18.6894C52.8032 18.8875 52.5602 18.9804 52.3208 18.9802L52.3191 20.9802C53.0882 20.9809 53.854 20.6772 54.4315 20.0811L52.9951 18.6894ZM60.7007 10.7363L52.9951 18.6894L54.4315 20.0811L62.1371 12.128L60.7007 10.7363ZM60.7007 9.25525C61.0936 9.66073 61.0936 10.3308 60.7007 10.7363L62.1371 12.128C63.2815 10.9469 63.2815 9.04467 62.1371 7.86356L60.7007 9.25525ZM52.9951 1.30221L60.7007 9.25525L62.1371 7.86356L54.4315 -0.0894818L52.9951 1.30221ZM52.3208 1.0114C52.5602 1.01118 52.8032 1.10412 52.9951 1.30221L54.4315 -0.0894827C53.854 -0.685576 53.0882 -0.989285 52.3191 -0.988604L52.3208 1.0114ZM51.3199 0V0.0113957H53.3199V0H51.3199ZM4 1H52.3199V-1H4V1Z" fill="#FF6F26" mask="url(#path-1-inside-1_1_727)"/>
<path d="M9.17156 10.43V5.68H13.4216V6.65H15.5816V5.58H16.3816V11.81H15.5816V9.51H13.4216V10.43H9.17156ZM13.4216 7.34V8.82H15.5816V7.34H13.4216ZM12.6316 6.38H9.96156V9.75H12.6316V6.38ZM16.5516 14.57H9.73156V11.64H10.5416V13.88H16.5516V14.57ZM19.2712 5.68H23.8112V6.38H21.9412V7.13C21.9412 8.64 22.8912 9.43 23.9712 9.67V10.4C22.8912 10.17 21.9712 9.52 21.5612 8.69C21.1512 9.55 20.2312 10.31 19.1212 10.52V9.79C20.2312 9.55 21.1412 8.66 21.1412 7.13V6.38H19.2712V5.68ZM26.4812 10.71H25.6812V8.26H23.6712V7.57H25.6812V5.58H26.4812V10.71ZM25.6812 14.68V12.18H19.7212V11.48H26.4812V14.68H25.6812ZM29.4008 5.74H32.9708V6.44H31.5808V9.92C31.5808 11.91 32.2208 12.75 33.0808 13.17V13.91C32.1208 13.55 31.4608 12.78 31.1808 11.96C30.9208 12.79 30.2508 13.54 29.3008 13.9V13.17C30.1408 12.73 30.8008 11.92 30.8008 9.92V6.44H29.4008V5.74ZM36.6808 14.53H35.9008V9.97H34.5908V14.43H33.8108V5.63H34.5908V9.27H35.9008V5.58H36.6808V14.53ZM42.9504 7.63V6.44H39.5504V5.74H43.7504V7.55C43.7504 10.94 42.4304 13.19 39.4904 13.97V13.22C41.8204 12.52 42.9504 10.57 42.9504 7.63ZM46.6504 5.58V14.52H45.8404V5.58H46.6504Z" fill="#1F212B"/>
</svg>
