<svg width="79" height="33" viewBox="0 0 79 33" fill="none" xmlns="http://www.w3.org/2000/svg">
<path d="M17.5928 24.7867C10.9534 21.2512 6.1982 22.8546 3.84058 23.9682L3.22034 24.2668C3.22034 24.2668 3.37373 23.9313 3.6305 23.3812C5.75469 18.8563 5.6313 15.9749 5.3812 13.9623C5.34786 13.6638 5.27115 13.1908 5.27115 13.1908C5.27115 13.1908 5.72134 13.2177 6.05148 13.221C8.25236 13.2915 10.0131 12.9862 12.9142 11.7753C15.712 10.6047 18.5032 8.02856 18.5032 8.02856C16.4739 12.8161 16.3818 18.2111 18.2464 23.0659C18.6075 24.0069 19.0171 24.9284 19.4736 25.8265L17.5928 24.7867Z" fill="#1D1E27"/>
<path d="M20.5007 15.237C20.6708 7.71333 26.5365 0.81353 24.2456 0.0554568C21.5778 -0.833434 14.9852 9.22948 9.36624 11.1716C6.51176 12.1779 4.22415 10.2492 3.30712 11.3964C2.39008 12.5435 4.33088 14.4152 3.76065 18.1452C3.16374 22.1033 -0.74451 26.4672 0.125841 27.5976C0.996192 28.728 3.86402 24.9477 7.98902 24.9645C13.3979 24.988 24.1855 35.5406 26.8433 32.4245C29.3943 29.419 20.3473 22.1503 20.5007 15.237ZM21.3277 29.7813C15.6088 26.7624 12.2641 23.9649 8.83936 23.8911C5.41464 23.8173 2.89696 25.7293 1.72982 26.4002C1.1029 26.7557 0.996197 26.1654 1.33967 25.4878C2.51014 23.17 3.89069 20.7616 4.29085 18.6182C4.87775 15.4953 3.9974 13.8282 3.91737 12.8421C3.89929 12.724 3.90651 12.6034 3.93854 12.4883C3.97056 12.3733 4.02666 12.2664 4.10307 12.175C4.17948 12.0835 4.27444 12.0095 4.38159 11.9579C4.48874 11.9064 4.6056 11.8785 4.72435 11.876C6.44505 11.8961 7.86896 12.5469 10.7268 11.1481C15.5521 8.77664 18.0631 5.32842 20.8509 2.94351C22.7983 1.26636 23.4052 2.0781 22.735 3.49697C21.0309 7.08608 19.5337 10.2861 19.4203 14.9016C19.2669 20.7045 22.785 24.7934 23.9888 27.9498C24.9292 30.4253 23.5953 30.9754 21.3277 29.7813Z" fill="#E0E0E0"/>
<path d="M19.4202 14.9082C19.5335 10.296 21.0308 7.09601 22.7348 3.50355C23.4018 2.08468 22.7982 1.27629 20.8507 2.95009C18.0663 5.335 15.5519 8.78322 10.7266 11.1547C7.86883 12.5635 6.44492 11.9027 4.72422 11.8826C4.60547 11.885 4.48861 11.913 4.38145 11.9645C4.2743 12.0161 4.17935 12.0901 4.10294 12.1815C4.02653 12.273 3.97043 12.3798 3.93841 12.4949C3.90638 12.6099 3.89916 12.7306 3.91724 12.8486C3.99727 13.8348 4.87762 15.5019 4.29072 18.6248C3.89056 20.7682 2.51001 23.1765 1.33954 25.4944C1.00607 26.1652 1.10277 26.7623 1.72969 26.4067C2.89683 25.7359 5.39784 23.8172 8.83923 23.8877C12.2806 23.9581 15.6086 26.7589 21.3276 29.7778C23.5818 30.972 24.9324 30.4185 23.9953 27.9531C22.7849 24.8 19.2601 20.6977 19.4202 14.9082Z" fill="#ED6B06"/>
<path d="M17.5928 24.7732C10.9434 21.2344 6.18152 22.8412 3.8239 23.9514C3.51711 24.0957 3.20032 24.2533 3.20032 24.2533C3.20032 24.2533 3.35371 23.9179 3.61381 23.3678C5.738 18.8395 5.61462 15.9581 5.36452 13.9489C5.33117 13.6504 5.25447 13.1741 5.25447 13.1741C5.25447 13.1741 5.70466 13.2009 6.03479 13.2076C8.23902 13.278 9.99972 12.9728 12.9076 11.7585C15.7087 10.5912 18.5031 8.01178 18.5031 8.01178C16.4734 12.8001 16.3801 18.196 18.243 23.0525C18.606 23.9932 19.0167 24.9146 19.4735 25.8131L17.5928 24.7732Z" fill="#E0E0E0"/>
<path d="M27.2968 20.6776C27.6807 20.5262 28.0301 20.298 28.3238 20.0067C28.6143 19.742 28.81 19.3883 28.8807 19.0005H27.5035V18.5376H29.4843C29.455 19.0957 29.2481 19.6296 28.8941 20.0604C28.5358 20.4869 28.0773 20.8166 27.5602 21.0197L27.2968 20.6776ZM30.2113 22.0797V21.6638H28.3305V21.2311H30.7415V22.4923H28.8641V22.9418H30.8382V23.3812H28.3305V22.0696L30.2113 22.0797ZM30.308 18.3363H30.7948V20.9694H30.308V18.3363Z" fill="white"/>
<path d="M32.759 18.5543C33.0275 18.5183 33.3006 18.5652 33.5418 18.689C33.7831 18.8128 33.9812 19.0076 34.1098 19.2474C34.2383 19.4872 34.2913 19.7607 34.2615 20.0315C34.2318 20.3024 34.1208 20.5576 33.9433 20.7635C33.7658 20.9693 33.5302 21.1158 33.2679 21.1837C33.0056 21.2515 32.7289 21.2374 32.4747 21.1433C32.2206 21.0491 32.0009 20.8794 31.845 20.6566C31.6891 20.4338 31.6043 20.1685 31.6019 19.8961C31.5799 19.5641 31.6891 19.2369 31.9058 18.9856C32.1226 18.7343 32.4292 18.5793 32.759 18.5543ZM32.759 19.0474C32.5871 19.0092 32.4077 19.0256 32.2454 19.0944C32.0832 19.1632 31.9461 19.2809 31.8533 19.4314C31.7604 19.5818 31.7162 19.7576 31.7268 19.9343C31.7375 20.1111 31.8024 20.2802 31.9127 20.4183C32.0229 20.5563 32.1731 20.6566 32.3424 20.7052C32.5117 20.7538 32.6918 20.7483 32.8579 20.6895C33.024 20.6307 33.1678 20.5215 33.2696 20.377C33.3713 20.2325 33.426 20.0597 33.426 19.8826C33.4371 19.7837 33.4286 19.6835 33.401 19.5879C33.3735 19.4922 33.3274 19.403 33.2654 19.3254C33.2034 19.2477 33.1267 19.1832 33.0398 19.1355C32.9529 19.0878 32.8575 19.0579 32.759 19.0474ZM34.5764 18.343H35.07V22.6801H34.5764V18.343Z" fill="white"/>
<path d="M37.9344 18.4235C38.1804 18.3998 38.4277 18.4515 38.6439 18.5719C38.86 18.6923 39.0349 18.8756 39.1455 19.0979C39.2561 19.3201 39.2972 19.5708 39.2635 19.817C39.2298 20.0632 39.1227 20.2934 38.9565 20.4773C38.7902 20.6611 38.5725 20.79 38.3321 20.8471C38.0916 20.9041 37.8396 20.8866 37.6092 20.7969C37.3788 20.7071 37.1808 20.5493 37.0412 20.3442C36.9017 20.1391 36.8271 19.8964 36.8273 19.6478C36.8137 19.3381 36.9225 19.0355 37.1299 18.8061C37.3373 18.5767 37.6266 18.4392 37.9344 18.4235ZM37.9344 18.9099C37.7834 18.883 37.6278 18.9036 37.4888 18.9688C37.3497 19.034 37.234 19.1406 37.1574 19.2743C37.0807 19.4079 37.0468 19.5621 37.0603 19.7158C37.0738 19.8695 37.1339 20.0153 37.2327 20.1334C37.3314 20.2514 37.4639 20.3361 37.6121 20.3758C37.7603 20.4155 37.9171 20.4084 38.0611 20.3554C38.2052 20.3023 38.3295 20.206 38.4172 20.0794C38.5049 19.9528 38.5517 19.8021 38.5513 19.6478C38.5605 19.5584 38.5517 19.4679 38.5254 19.382C38.4991 19.296 38.4559 19.2162 38.3984 19.1473C38.3408 19.0785 38.2701 19.022 38.1904 18.9812C38.1107 18.9404 38.0236 18.9162 37.9344 18.9099ZM39.8018 22.0797V21.6638H37.9211V21.2311H40.3287V22.4923H38.4546V22.9418H40.4254V23.3812H37.9211V22.0696L39.8018 22.0797ZM39.8952 18.3363H40.3821V20.9996H39.8952V20.4026H39.1716V19.9598H39.8952V19.356H39.1683V18.9132H39.8885L39.8952 18.3363Z" fill="white"/>
<path d="M43.6967 21.3686C43.1453 21.458 42.588 21.5063 42.0294 21.5128H41.2024V19.8122H42.5729V19.0776H41.2091V18.608H43.0665V20.2483H41.7059V21.0332H42.2228C42.7166 21.0274 43.2092 20.9848 43.6967 20.9057V21.3686ZM43.9902 18.3497H44.4837V22.6868H43.9902V18.3497Z" fill="white"/>
<path d="M45.0106 20.9325H49.0989V21.3921H45.0106V20.9325ZM46.3445 18.4067V19.8088H48.3453V20.255H45.8543V18.4067H46.3445ZM46.3612 21.8114V22.9082H48.4187V23.3812H45.8476V21.8214L46.3612 21.8114Z" fill="white"/>
<path d="M58.4793 20.4394V18.6315C58.4966 18.4907 58.5432 18.3551 58.6162 18.2337C58.6892 18.1123 58.7869 18.0078 58.9029 17.9271H56.9787V24.0722C56.4727 24.2243 55.9462 24.2968 55.4181 24.2868H54.4411V23.2805C54.8768 23.1527 55.2608 22.8888 55.5378 22.5271C55.8147 22.1653 55.9701 21.7244 55.9817 21.268C55.9767 20.9926 55.9149 20.7212 55.8001 20.4712C55.6852 20.2212 55.52 19.9979 55.3147 19.8155H56.3151V18.9669H54.4411V18.4202C54.4536 18.3046 54.4934 18.1938 54.5572 18.0969C54.621 18.0001 54.707 17.92 54.8079 17.8633H52.9404V18.9669H51.043V19.8155H52.0434C51.8384 19.998 51.6732 20.2213 51.5584 20.4713C51.4436 20.7213 51.3816 20.9926 51.3765 21.268C51.3904 21.7257 51.5484 22.1671 51.8276 22.5288C52.1069 22.8905 52.493 23.1537 52.9304 23.2805V24.2868H50.9763V25.1355H55.3381C55.8986 25.1354 56.4532 25.0213 56.9687 24.8V27.1481H58.4694V21.2881H59.9666V20.4394H58.4793ZM53.6874 22.5828C53.2172 22.5828 52.8204 21.969 52.8204 21.278C52.8204 20.587 53.2172 19.9698 53.6874 19.9698C54.1576 19.9698 54.5511 20.587 54.5511 21.278C54.5511 21.969 54.1609 22.5828 53.6874 22.5828Z" fill="white"/>
<path d="M65.4788 22.8847L66.2024 22.2474C65.0019 22.0126 63.8948 20.8654 63.8948 19.1547V18.7556C63.9282 18.4784 64.0683 18.2256 64.285 18.0511H62.3742V19.1547C62.3742 20.8319 61.2737 22.0126 60.0399 22.2474L60.7836 22.8847C61.7039 22.7941 62.8811 21.9891 63.1178 21.1874C63.3946 21.9891 64.5384 22.7941 65.4788 22.8847Z" fill="white"/>
<path d="M66.8127 17.9271V19.5573H64.9686V20.4059H66.8127V23.2202H68.31V18.6315C68.3272 18.4907 68.3738 18.3551 68.4468 18.2337C68.5198 18.1123 68.6175 18.0078 68.7335 17.9271H66.8127Z" fill="white"/>
<path d="M73.4687 19.9028V18.8328C73.5108 18.5578 73.6506 18.3076 73.8621 18.1284H71.948V19.9028C71.948 21.6672 70.8476 23.0525 69.6138 23.2873L70.3474 23.9347C71.3211 23.8441 72.4649 22.9518 72.6817 22.1032C72.9251 22.9518 74.0556 23.8542 75.0326 23.9347L75.7562 23.2873C74.5791 23.0458 73.4687 21.6806 73.4687 19.9028Z" fill="white"/>
<path d="M78.284 17.9271H76.3699V27.1715H77.8705V18.6315C77.8887 18.4921 77.9347 18.3578 78.0057 18.2368C78.0768 18.1157 78.1714 18.0104 78.284 17.9271Z" fill="white"/>
<path d="M65.6121 23.4785C64.1482 23.4785 62.9811 24.4847 62.9811 25.7694C62.9811 27.0541 64.1482 28.0504 65.6121 28.0504C67.0761 28.0504 68.2365 27.0441 68.2365 25.7694C68.2365 24.4948 67.0761 23.4785 65.6121 23.4785ZM65.6121 27.2554C64.9919 27.2554 64.4617 26.5409 64.4617 25.7694C64.4617 24.998 64.9919 24.26 65.6121 24.26C66.2324 24.26 66.766 24.9912 66.766 25.7694C66.766 26.5476 66.2324 27.2554 65.6121 27.2554Z" fill="white"/>
<path d="M29.8811 11.2184V11.6679H28.8374V15.2704H28.3339V11.6679H27.2968V11.2184H29.8811Z" fill="#F49600"/>
<path d="M31.5985 15.2704V13.3484C31.5985 13.013 31.4885 12.7581 31.105 12.7581C30.6581 12.7581 30.5414 13.127 30.5414 13.6034V15.2805H30.0979V11.2184H30.5448V12.8017H30.5681C30.6323 12.6604 30.7398 12.5435 30.8748 12.4681C31.0098 12.3926 31.1652 12.3626 31.3184 12.3824C31.7886 12.3824 32.052 12.6205 32.052 13.2612V15.2738L31.5985 15.2704Z" fill="#F49600"/>
<path d="M33.0025 13.9891C33.0025 14.7807 33.2092 14.9384 33.5627 14.9384C33.6299 14.9358 33.6959 14.9197 33.7567 14.891C33.8176 14.8622 33.872 14.8214 33.9169 14.771C33.9617 14.7206 33.9959 14.6616 34.0176 14.5976C34.0392 14.5335 34.0478 14.4658 34.0429 14.3983H34.5364C34.5364 15.0256 34.1529 15.314 33.5727 15.314C32.9924 15.314 32.5189 15.1329 32.5189 13.8851C32.5189 13.0566 32.6156 12.3723 33.5727 12.3723C34.3597 12.3723 34.5731 12.8151 34.5731 13.7509V13.9891H33.0025ZM34.0829 13.6537C34.0829 12.8319 33.8561 12.7279 33.526 12.7279C33.1959 12.7279 33.0091 12.8654 33.0025 13.6537H34.0829Z" fill="#F49600"/>
<path d="M36.157 11.2184H36.6939L37.4375 14.7304L38.2312 11.2184H38.8981L39.6017 14.7304L40.4054 11.2184H40.9356L39.8885 15.2704H39.2716L38.5246 11.7585L37.7276 15.2704H37.114L36.157 11.2184Z" fill="#F49600"/>
<path d="M42.3961 14.8612C42.3473 15.0044 42.2529 15.1274 42.1275 15.2111C42.002 15.2948 41.8527 15.3345 41.7025 15.3241C41.1156 15.3241 40.9456 14.9384 40.9456 14.3916C40.9456 13.5329 41.7692 13.496 42.3961 13.5161C42.3961 13.1405 42.4161 12.7279 41.9326 12.7279C41.8685 12.7233 41.8043 12.7338 41.7449 12.7585C41.6856 12.7832 41.6328 12.8215 41.5907 12.8704C41.5486 12.9192 41.5184 12.9772 41.5025 13.0398C41.4866 13.1024 41.4855 13.1679 41.4991 13.231H41.0022C41.0256 12.5971 41.3357 12.3824 41.9359 12.3824C42.6462 12.3824 42.833 12.7581 42.833 13.231V14.5962C42.8364 14.821 42.8565 15.0453 42.893 15.2671H42.3961V14.8612ZM41.3957 14.4285C41.3957 14.7036 41.5291 14.9484 41.8292 14.9484C42.1294 14.9484 42.4462 14.7774 42.3995 13.8616C41.9593 13.8683 41.3824 13.8281 41.3824 14.4285H41.3957Z" fill="#F49600"/>
<path d="M44.3035 14.7405L44.9705 12.4361H45.4573L44.2135 16.3371H43.75L44.0601 15.2671L43.123 12.4327H43.6399L44.3035 14.7405Z" fill="#F49600"/>
<path d="M47.1682 12.4361V11.8927L47.6184 11.6848V12.4361H48.2219V12.7715H47.605V14.5057C47.605 14.6869 47.605 14.9149 48.0152 14.9149L48.2153 14.8948V15.247C48.0685 15.247 47.9218 15.2906 47.7751 15.2906C47.3483 15.2906 47.1548 15.1162 47.1548 14.7875V12.7749H46.698V12.4395L47.1682 12.4361Z" fill="#F49600"/>
<path d="M48.4453 13.8952C48.4453 13.0667 48.5387 12.3824 49.4957 12.3824C50.4528 12.3824 50.5462 13.0532 50.5462 13.8952C50.5462 15.143 50.0793 15.3241 49.4957 15.3241C48.9122 15.3241 48.4453 15.143 48.4453 13.8952ZM50.076 13.7006C50.076 12.9224 49.8359 12.7581 49.4957 12.7581C49.1556 12.7581 48.9122 12.9224 48.9122 13.7006C48.9122 14.6163 49.0322 14.9484 49.4957 14.9484C49.9592 14.9484 50.076 14.6163 50.076 13.7006Z" fill="#F49600"/>
<path d="M52.5736 15.2705V11.2185H53.8575C54.0296 11.1953 54.2048 11.2229 54.3616 11.2979C54.5185 11.373 54.6503 11.4922 54.7411 11.6411C54.8395 11.8042 54.8935 11.9905 54.8979 12.1812C54.8979 12.6843 54.7311 13.0231 54.2309 13.1405V13.1673C54.3494 13.1719 54.4657 13.2013 54.5722 13.2537C54.6787 13.3061 54.7731 13.3803 54.8494 13.4716C54.9258 13.5629 54.9822 13.6692 55.0153 13.7838C55.0483 13.8983 55.0572 14.0185 55.0413 14.1367C55.0413 15.1732 54.301 15.2772 53.8541 15.2772L52.5736 15.2705ZM53.0738 12.9225H53.8074C54.2042 12.9225 54.3943 12.6742 54.3943 12.2784C54.4015 12.1965 54.3907 12.1139 54.3627 12.0366C54.3347 11.9593 54.2902 11.8891 54.2324 11.8309C54.1745 11.7727 54.1047 11.7279 54.0278 11.6998C53.951 11.6717 53.8689 11.6608 53.7874 11.668H53.0738V12.9225ZM53.0738 14.821H53.7874C53.8816 14.8296 53.9766 14.818 54.066 14.7869C54.1554 14.7557 54.2371 14.7059 54.3059 14.6405C54.3746 14.5752 54.4288 14.4958 54.4648 14.4078C54.5007 14.3198 54.5176 14.2251 54.5144 14.13C54.5144 13.486 54.1276 13.3719 53.614 13.3719H53.0738V14.821Z" fill="#F49600"/>
<path d="M55.9416 13.9891C55.9416 14.7807 56.1517 14.9384 56.5018 14.9384C56.569 14.9358 56.635 14.9197 56.6959 14.891C56.7567 14.8622 56.8112 14.8214 56.8561 14.771C56.9009 14.7206 56.9351 14.6616 56.9568 14.5976C56.9784 14.5335 56.987 14.4658 56.982 14.3983H57.4789C57.4789 15.0256 57.0954 15.314 56.5152 15.314C55.9349 15.314 55.4614 15.1329 55.4614 13.8851C55.4614 13.0566 55.5548 12.3723 56.5152 12.3723C57.3022 12.3723 57.4956 12.8151 57.4956 13.7509V13.9891H55.9416ZM57.0221 13.6537C57.0221 12.8319 56.7953 12.7279 56.4685 12.7279C56.1417 12.7279 55.9416 12.8654 55.9416 13.6537H57.0221Z" fill="#F49600"/>
<path d="M58.2026 12.4361V11.8927L58.6527 11.6848V12.4361H59.253V12.7715H58.6527V14.5057C58.6527 14.6869 58.6527 14.9149 59.0595 14.9149L59.2663 14.8948V15.247C59.1162 15.247 58.9662 15.2906 58.8228 15.2906C58.396 15.2906 58.2026 15.1162 58.2026 14.7875V12.7749H57.749V12.4395L58.2026 12.4361Z" fill="#F49600"/>
<path d="M59.7599 12.4361V11.8927L60.2067 11.6848V12.4361H60.807V12.7715H60.2067V14.5057C60.2067 14.6869 60.2068 14.9149 60.6203 14.9149L60.8237 14.8948V15.247C60.6736 15.247 60.5269 15.2906 60.3768 15.2906C59.95 15.2906 59.7599 15.1162 59.7599 14.7875V12.7749H59.3064V12.4395L59.7599 12.4361Z" fill="#F49600"/>
<path d="M61.6106 13.9891C61.6106 14.7807 61.8173 14.9384 62.1708 14.9384C62.5243 14.9384 62.6343 14.6868 62.651 14.3983H63.1445C63.1445 15.0256 62.761 15.314 62.1808 15.314C61.6006 15.314 61.1304 15.1329 61.1304 13.8851C61.1304 13.0566 61.2204 12.3723 62.1808 12.3723C62.9678 12.3723 63.1812 12.8151 63.1812 13.7509V13.9891H61.6106ZM62.6877 13.6537C62.6877 12.8319 62.4676 12.7279 62.1375 12.7279C61.8073 12.7279 61.6172 12.8654 61.6106 13.6537H62.6877Z" fill="#F49600"/>
<path d="M64.1516 12.862C64.335 12.4327 64.5651 12.3824 65.002 12.3824V12.8553C64.9219 12.8553 64.8453 12.8319 64.7652 12.8319C64.265 12.8319 64.1383 13.2143 64.1383 13.5966V15.2738H63.6881V12.4394H64.1383L64.1516 12.862Z" fill="#F49600"/>
<path d="M66.776 15.2704V11.2184H67.2795V14.821H68.7301V15.2704H66.776Z" fill="#F49600"/>
<path d="M69.0436 11.2184H69.5505V11.7149H69.0436V11.2184ZM69.5204 15.2704H69.0736V12.4361H69.5204V15.2704Z" fill="#F49600"/>
<path d="M69.9141 12.4361H70.4176L71.0378 14.8344L71.7048 12.4361H72.1716L71.308 15.2705H70.721L69.9141 12.4361Z" fill="#F49600"/>
<path d="M72.4548 11.2184H72.9484V11.7149H72.4448L72.4548 11.2184ZM72.9484 15.2704H72.4815V12.4361H72.9484V15.2704Z" fill="#F49600"/>
<path d="M75.0393 15.2705V13.3183C75.0393 13.0164 74.9326 12.7715 74.5524 12.7715C74.0589 12.7715 73.9889 13.2176 73.9889 13.6067V15.2839H73.5354V13.0398C73.5354 12.8453 73.5353 12.6474 73.5087 12.4495H73.9889V12.8151H74.0089C74.073 12.676 74.1789 12.5606 74.3118 12.4854C74.4446 12.4101 74.5977 12.3788 74.7492 12.3958C75.3394 12.3958 75.4895 12.7581 75.4895 13.3183V15.2839L75.0393 15.2705Z" fill="#F49600"/>
<path d="M77.4136 12.4361H77.8604V15.5556C77.8604 16.1896 77.4503 16.3405 76.86 16.3405C76.3965 16.3405 75.9797 16.1057 76.023 15.5824H76.5232C76.5185 15.6396 76.5264 15.6971 76.5463 15.7508C76.5662 15.8045 76.5977 15.8532 76.6385 15.8932C76.6792 15.9333 76.7283 15.9638 76.7822 15.9826C76.8361 16.0013 76.8934 16.0079 76.9501 16.0017C77.0149 16.0074 77.0801 15.9987 77.1411 15.9763C77.2022 15.9538 77.2576 15.9181 77.3034 15.8717C77.3492 15.8253 77.3844 15.7693 77.4063 15.7077C77.4282 15.6461 77.4364 15.5805 77.4303 15.5154V14.925H77.4103C77.3523 15.0347 77.2651 15.126 77.1585 15.1888C77.052 15.2515 76.9302 15.2833 76.8067 15.2806C76.0564 15.2806 75.9097 14.6097 75.9097 13.7778C75.9097 12.4763 76.5499 12.3925 76.7733 12.3925C76.9087 12.385 77.0432 12.4192 77.1588 12.4905C77.2743 12.5618 77.3656 12.6669 77.4203 12.7917L77.4136 12.4361ZM76.8867 12.7715C76.3799 12.7715 76.3632 13.3988 76.3632 13.7778C76.3632 14.6835 76.5633 14.8982 76.8967 14.8982C77.4403 14.8982 77.4269 14.2273 77.4269 13.8483C77.4269 13.4692 77.4503 12.7615 76.8867 12.7615V12.7715Z" fill="#F49600"/>
</svg>
