<svg width="62" height="20" viewBox="0 0 62 20" fill="none" xmlns="http://www.w3.org/2000/svg">
<mask id="path-1-inside-1_1_768" fill="white">
<path fill-rule="evenodd" clip-rule="evenodd" d="M4 0C1.79086 0 0 1.79086 0 4V16C0 18.2091 1.79086 20 4 20H52.3199V19.9802C52.8242 19.9806 53.3286 19.7823 53.7133 19.3852L61.4189 11.4322C62.1875 10.6389 62.1875 9.3527 61.4189 8.55941L53.7133 0.606364C53.3286 0.209272 52.8242 0.0109489 52.3199 0.0113957V0H4Z"/>
</mask>
<path fill-rule="evenodd" clip-rule="evenodd" d="M4 0C1.79086 0 0 1.79086 0 4V16C0 18.2091 1.79086 20 4 20H52.3199V19.9802C52.8242 19.9806 53.3286 19.7823 53.7133 19.3852L61.4189 11.4322C62.1875 10.6389 62.1875 9.3527 61.4189 8.55941L53.7133 0.606364C53.3286 0.209272 52.8242 0.0109489 52.3199 0.0113957V0H4Z" fill="white"/>
<path d="M52.3199 20V21H53.3199V20H52.3199ZM52.3199 19.9802L52.3208 18.9802L51.3199 18.9793V19.9802H52.3199ZM53.7133 19.3852L52.9951 18.6894L52.9951 18.6894L53.7133 19.3852ZM61.4189 11.4322L62.1371 12.128L62.1371 12.128L61.4189 11.4322ZM61.4189 8.55941L60.7007 9.25525L60.7007 9.25525L61.4189 8.55941ZM53.7133 0.606364L54.4315 -0.0894818L54.4315 -0.0894827L53.7133 0.606364ZM52.3199 0.0113957H51.3199V1.01228L52.3208 1.0114L52.3199 0.0113957ZM52.3199 0H53.3199V-1H52.3199V0ZM1 4C1 2.34315 2.34315 1 4 1V-1C1.23858 -1 -1 1.23858 -1 4H1ZM1 16V4H-1V16H1ZM4 19C2.34315 19 1 17.6569 1 16H-1C-1 18.7614 1.23858 21 4 21V19ZM52.3199 19H4V21H52.3199V19ZM51.3199 19.9802V20H53.3199V19.9802H51.3199ZM52.9951 18.6894C52.8032 18.8875 52.5602 18.9804 52.3208 18.9802L52.3191 20.9802C53.0882 20.9809 53.854 20.6772 54.4315 20.0811L52.9951 18.6894ZM60.7007 10.7363L52.9951 18.6894L54.4315 20.0811L62.1371 12.128L60.7007 10.7363ZM60.7007 9.25525C61.0936 9.66073 61.0936 10.3308 60.7007 10.7363L62.1371 12.128C63.2815 10.9469 63.2815 9.04467 62.1371 7.86356L60.7007 9.25525ZM52.9951 1.30221L60.7007 9.25525L62.1371 7.86356L54.4315 -0.0894818L52.9951 1.30221ZM52.3208 1.0114C52.5602 1.01118 52.8032 1.10412 52.9951 1.30221L54.4315 -0.0894827C53.854 -0.685576 53.0882 -0.989285 52.3191 -0.988604L52.3208 1.0114ZM51.3199 0V0.0113957H53.3199V0H51.3199ZM4 1H52.3199V-1H4V1Z" fill="#FF6F26" mask="url(#path-1-inside-1_1_768)"/>
<path d="M9.84156 7.48H12.5516V5.68H13.3416V10.67H9.05156V5.68H9.84156V7.48ZM12.5516 9.98V8.17H9.84156V9.98H12.5516ZM16.1316 5.58V8.13H17.5016V8.84H16.1316V11.87H15.3316V5.58H16.1316ZM10.3716 11.76V13.88H16.3016V14.57H9.57156V11.76H10.3716ZM22.6712 6.38H19.2712V5.68H23.4712V6.19C23.4712 8.93 21.7512 10.22 19.0412 10.49V9.79C21.2712 9.56 22.6712 8.44 22.6712 6.38ZM23.6512 7.35V6.66H25.6812V5.58H26.4812V10.72H25.6812V9.28H23.5212V8.58H25.6812V7.35H23.6512ZM23.1812 14.75C22.0912 14.75 21.0812 14.6 20.4312 14.17C19.9712 13.88 19.6912 13.46 19.6912 12.9C19.6912 12.34 19.9712 11.92 20.4312 11.62C21.0812 11.2 22.0912 11.03 23.1812 11.03C24.2712 11.03 25.2912 11.2 25.9412 11.62C26.3912 11.92 26.6812 12.34 26.6812 12.9C26.6812 13.46 26.3912 13.88 25.9412 14.17C25.2912 14.6 24.2712 14.75 23.1812 14.75ZM23.1812 11.73C22.2512 11.73 21.4112 11.87 20.9212 12.18C20.6612 12.36 20.5012 12.6 20.5012 12.9C20.5012 13.19 20.6612 13.43 20.9212 13.61C21.4112 13.92 22.2512 14.06 23.1812 14.06C24.1112 14.06 24.9612 13.92 25.4412 13.61C25.7212 13.43 25.8812 13.19 25.8812 12.9C25.8812 12.6 25.7212 12.36 25.4412 12.18C24.9612 11.87 24.1112 11.73 23.1812 11.73ZM29.4008 5.74H32.9708V6.44H31.5808V9.92C31.5808 11.91 32.2208 12.75 33.0808 13.17V13.91C32.1208 13.55 31.4608 12.78 31.1808 11.96C30.9208 12.79 30.2508 13.54 29.3008 13.9V13.17C30.1408 12.73 30.8008 11.92 30.8008 9.92V6.44H29.4008V5.74ZM36.6808 14.53H35.9008V9.97H34.5908V14.43H33.8108V5.63H34.5908V9.27H35.9008V5.58H36.6808V14.53ZM42.9504 7.63V6.44H39.5504V5.74H43.7504V7.55C43.7504 10.94 42.4304 13.19 39.4904 13.97V13.22C41.8204 12.52 42.9504 10.57 42.9504 7.63ZM46.6504 5.58V14.52H45.8404V5.58H46.6504Z" fill="#1F212B"/>
</svg>
