<svg width="21" height="21" viewBox="0 0 21 21" fill="none" xmlns="http://www.w3.org/2000/svg">
<path d="M1 19H20V20H1V19Z" fill="#B5B5B7"/>
<path opacity="0.8" d="M9 14C9 13.4477 9.44772 13 10 13H11C11.5523 13 12 13.4477 12 14V17H9V14Z" fill="url(#paint0_linear_4_2284)"/>
<path d="M10.5 13V4.96154C10.5 3.18735 12 2 14 2H16.5" stroke="#D4D4D6"/>
<path d="M10.5 13V4.96154C10.5 3.18735 9 2 6.99998 2H4.5" stroke="#D4D4D6"/>
<path d="M8 18C8 17.4477 8.44772 17 9 17H12C12.5523 17 13 17.4477 13 18V19H8V18Z" fill="url(#paint1_linear_4_2284)"/>
<path d="M14 2.2C14 1.53726 14.5373 1 15.2 1H17.8C18.4627 1 19 1.53726 19 2.2V2.7C19 2.86569 18.8657 3 18.7 3H14.3C14.1343 3 14 2.86569 14 2.7V2.2Z" fill="url(#paint2_linear_4_2284)"/>
<path d="M2 2.2C2 1.53726 2.53726 1 3.2 1H5.8C6.46274 1 7 1.53726 7 2.2V2.7C7 2.86569 6.86569 3 6.7 3H2.3C2.13431 3 2 2.86569 2 2.7V2.2Z" fill="url(#paint3_linear_4_2284)"/>
<path d="M15 3H18C18 3.55228 17.5523 4 17 4H16C15.4477 4 15 3.55228 15 3Z" fill="white"/>
<path d="M3 3H6C6 3.55228 5.55228 4 5 4H4C3.44772 4 3 3.55228 3 3Z" fill="white"/>
<path opacity="0.5" d="M15.8 4H17.2L19 19H14L15.8 4Z" fill="url(#paint4_linear_4_2284)"/>
<path opacity="0.5" d="M3.8 4H5.2L7 19H2L3.8 4Z" fill="url(#paint5_linear_4_2284)"/>
<defs>
<linearGradient id="paint0_linear_4_2284" x1="10.5" y1="13" x2="10.5" y2="17" gradientUnits="userSpaceOnUse">
<stop stop-color="white"/>
<stop offset="0.127261" stop-color="#E7E7E7" stop-opacity="0.75"/>
</linearGradient>
<linearGradient id="paint1_linear_4_2284" x1="10.5" y1="17" x2="10.5" y2="19" gradientUnits="userSpaceOnUse">
<stop stop-color="white"/>
<stop offset="0.385978" stop-color="#E7E7E7" stop-opacity="0.75"/>
</linearGradient>
<linearGradient id="paint2_linear_4_2284" x1="16.5" y1="1" x2="16.5" y2="3" gradientUnits="userSpaceOnUse">
<stop stop-color="white"/>
<stop offset="0.523162" stop-color="#CACACA"/>
</linearGradient>
<linearGradient id="paint3_linear_4_2284" x1="4.5" y1="1" x2="4.5" y2="3" gradientUnits="userSpaceOnUse">
<stop stop-color="white"/>
<stop offset="0.523162" stop-color="#CACACA"/>
</linearGradient>
<linearGradient id="paint4_linear_4_2284" x1="16.5" y1="4" x2="16.5" y2="19" gradientUnits="userSpaceOnUse">
<stop stop-color="white"/>
<stop offset="1" stop-color="white" stop-opacity="0"/>
</linearGradient>
<linearGradient id="paint5_linear_4_2284" x1="4.5" y1="4" x2="4.5" y2="19" gradientUnits="userSpaceOnUse">
<stop stop-color="white"/>
<stop offset="1" stop-color="white" stop-opacity="0"/>
</linearGradient>
</defs>
</svg>
