<svg width="21" height="21" viewBox="0 0 21 21" fill="none" xmlns="http://www.w3.org/2000/svg">
<path d="M1 19H20V20H1V19Z" fill="#B5B5B7"/>
<path opacity="0.8" d="M7 14C7 13.4477 7.44772 13 8 13H9C9.55228 13 10 13.4477 10 14V17H7V14Z" fill="url(#paint0_linear_3_1166)"/>
<path opacity="0.8" d="M8.5 13V4.96154C8.5 3.18735 10 2 12 2H14.5" stroke="white"/>
<path d="M6 18C6 17.4477 6.44772 17 7 17H10C10.5523 17 11 17.4477 11 18V19H6V18Z" fill="url(#paint1_linear_3_1166)"/>
<path d="M13 2.2C13 1.53726 13.5373 1 14.2 1H16.8C17.4627 1 18 1.53726 18 2.2V2.7C18 2.86569 17.8657 3 17.7 3H13.3C13.1343 3 13 2.86569 13 2.7V2.2Z" fill="url(#paint2_linear_3_1166)"/>
<path d="M14 3H17C17 3.55228 16.5523 4 16 4H15C14.4477 4 14 3.55228 14 3Z" fill="white"/>
<path opacity="0.75" d="M14.8 4H16.2L18 19H13L14.8 4Z" fill="url(#paint3_linear_3_1166)"/>
<circle cx="5.94972" cy="5.94991" r="1.09303" transform="rotate(-90 5.94972 5.94991)" fill="#479DFF"/>
<path d="M6.46512 3.18607C4.65413 3.18607 3.18603 4.65416 3.18604 6.46515" stroke="#479DFF" stroke-width="1.09303" stroke-linecap="round"/>
<path d="M6.46514 1.00001C3.44682 1.00001 0.999999 3.44684 1 6.46515" stroke="#479DFF" stroke-linecap="round"/>
<defs>
<linearGradient id="paint0_linear_3_1166" x1="8.5" y1="13" x2="8.5" y2="17" gradientUnits="userSpaceOnUse">
<stop stop-color="white"/>
<stop offset="0.127261" stop-color="#E7E7E7" stop-opacity="0.75"/>
</linearGradient>
<linearGradient id="paint1_linear_3_1166" x1="8.5" y1="17" x2="8.5" y2="19" gradientUnits="userSpaceOnUse">
<stop stop-color="white"/>
<stop offset="0.385978" stop-color="#E7E7E7" stop-opacity="0.75"/>
</linearGradient>
<linearGradient id="paint2_linear_3_1166" x1="15.5" y1="1" x2="15.5" y2="3" gradientUnits="userSpaceOnUse">
<stop stop-color="white"/>
<stop offset="0.523162" stop-color="#CACACA"/>
</linearGradient>
<linearGradient id="paint3_linear_3_1166" x1="15.5" y1="4" x2="15.5" y2="19" gradientUnits="userSpaceOnUse">
<stop stop-color="white"/>
<stop offset="1" stop-color="white" stop-opacity="0.1"/>
</linearGradient>
</defs>
</svg>
