<svg width="43" height="43" viewBox="0 0 43 43" fill="none" xmlns="http://www.w3.org/2000/svg">
<circle opacity="0.75" cx="21.5" cy="21.5" r="21.5" fill="url(#paint0_linear_24_401)"/>
<rect x="24" y="20" width="5" height="1" rx="0.5" fill="white"/>
<rect x="24" y="22" width="5" height="1" rx="0.5" fill="white"/>
<rect x="24" y="24" width="5" height="1" rx="0.5" fill="white"/>
<rect x="14" y="24" width="2" height="1" rx="0.5" fill="white"/>
<circle cx="18" cy="20" r="3.375" stroke="white" stroke-width="1.25"/>
<circle cx="18" cy="20" r="2" fill="url(#paint1_linear_24_401)"/>
<path opacity="0.66" d="M13 27H16L15.4394 29.2425C15.3281 29.6877 14.9281 30 14.4692 30H13.4C13.1791 30 13 29.8209 13 29.6V27Z" fill="white"/>
<path opacity="0.66" d="M30 27H27L27.5606 29.2425C27.6719 29.6877 28.0719 30 28.5308 30H29.6C29.8209 30 30 29.8209 30 29.6V27Z" fill="white"/>
<path d="M20.5 18L30.5 18C30.7761 18 31 18.2239 31 18.5V26.5C31 26.7761 30.7761 27 30.5 27H12.5C12.2239 27 12 26.7761 12 26.5V18.5C12 18.2239 12.2239 18 12.5 18L15.5 18" stroke="white" stroke-width="1.25"/>
<path d="M18 11V13" stroke="white" stroke-width="1.5" stroke-linecap="round"/>
<path d="M23 13L21.5858 14.4142" stroke="white" stroke-width="1.5" stroke-linecap="round"/>
<path d="M13 13L14.4142 14.4142" stroke="white" stroke-width="1.5" stroke-linecap="round"/>
<defs>
<linearGradient id="paint0_linear_24_401" x1="4.00077" y1="6.99996" x2="35.4999" y2="38.4991" gradientUnits="userSpaceOnUse">
<stop stop-color="#30EFE9"/>
<stop offset="1" stop-color="#097FC4"/>
</linearGradient>
<linearGradient id="paint1_linear_24_401" x1="16" y1="18" x2="20" y2="22" gradientUnits="userSpaceOnUse">
<stop stop-color="#D9D9D9"/>
<stop offset="1" stop-color="#D9D9D9" stop-opacity="0"/>
</linearGradient>
</defs>
</svg>
