<svg width="43" height="43" viewBox="0 0 43 43" fill="none" xmlns="http://www.w3.org/2000/svg">
<path opacity="0.33" d="M43 21.5C43 33.3741 33.3741 43 21.5 43C9.62588 43 0 33.3741 0 21.5C0 9.62588 9.62588 0 21.5 0C33.3741 0 43 9.62588 43 21.5Z" fill="url(#paint0_linear_24_875)"/>
<rect x="11" y="24" width="21" height="6" rx="1" stroke="#DEDEDE" stroke-width="1.25"/>
<rect x="13" y="26" width="8" height="2" rx="0.5" fill="#DEDEDE"/>
<rect x="25" y="26" width="2" height="2" rx="1" fill="#DEDEDE"/>
<rect x="28" y="26" width="2" height="2" rx="1" fill="#DEDEDE"/>
<path d="M12 15C12 14.4477 12.4477 14 13 14V14C13.5523 14 14 14.4477 14 15V24H12V15Z" fill="url(#paint1_linear_24_875)"/>
<path opacity="0.8" d="M32 14.1429H29.0286C29.0286 16.52 31.0095 17.1143 32 17.1143V14.1429Z" fill="#DEDEDE"/>
<path d="M26.7999 14.1429H24.5713C24.5713 18.6 27.5427 21.5714 31.9999 21.5714V19.3429C29.0284 19.3429 26.7999 17.1143 26.7999 14.1429Z" fill="#DEDEDE"/>
<defs>
<linearGradient id="paint0_linear_24_875" x1="43" y1="43" x2="0" y2="0" gradientUnits="userSpaceOnUse">
<stop stop-color="#353535"/>
<stop offset="1" stop-color="white"/>
</linearGradient>
<linearGradient id="paint1_linear_24_875" x1="13" y1="14" x2="13" y2="24" gradientUnits="userSpaceOnUse">
<stop stop-color="#DEDEDE"/>
<stop offset="1" stop-color="#DEDEDE" stop-opacity="0.75"/>
</linearGradient>
</defs>
</svg>
