<svg width="43" height="43" viewBox="0 0 43 43" fill="none" xmlns="http://www.w3.org/2000/svg">
<path opacity="0.33" d="M43 21.5C43 33.3741 33.3741 43 21.5 43C9.62588 43 0 33.3741 0 21.5C0 9.62588 9.62588 0 21.5 0C33.3741 0 43 9.62588 43 21.5Z" fill="url(#paint0_linear_24_936)"/>
<path d="M29 10L24 10" stroke="#DEDEDE" stroke-width="1.25" stroke-linecap="round"/>
<path d="M25 15L30 15" stroke="#DEDEDE" stroke-width="1.25" stroke-linecap="round"/>
<path d="M25 8L23 10L25 12" stroke="#DEDEDE" stroke-width="1.25" stroke-linecap="round" stroke-linejoin="round"/>
<path d="M29 17L31 15L29 13" stroke="#DEDEDE" stroke-width="1.25" stroke-linecap="round" stroke-linejoin="round"/>
<circle cx="19.25" cy="14.25" r="2.25" fill="#DEDEDE"/>
<path opacity="0.6" d="M15.5 32L18 29L19 26" stroke="#DEDEDE" stroke-width="3" stroke-linecap="round"/>
<path opacity="0.6" d="M19 19L16 20L14 22.5" stroke="#DEDEDE" stroke-width="3" stroke-linecap="round"/>
<path d="M19 19V25" stroke="#DEDEDE" stroke-width="3" stroke-linecap="round"/>
<path d="M19 19L22 22" stroke="#DEDEDE" stroke-width="3" stroke-linecap="round"/>
<path d="M19 25L22 28" stroke="#DEDEDE" stroke-width="3" stroke-linecap="round"/>
<path d="M22 28L23 32" stroke="#DEDEDE" stroke-width="3" stroke-linecap="round"/>
<path d="M22 22L25 22" stroke="#DEDEDE" stroke-width="3" stroke-linecap="round"/>
<defs>
<linearGradient id="paint0_linear_24_936" x1="43" y1="43" x2="0" y2="0" gradientUnits="userSpaceOnUse">
<stop stop-color="#353535"/>
<stop offset="1" stop-color="white"/>
</linearGradient>
</defs>
</svg>
