<svg width="74" height="14" viewBox="0 0 74 14" fill="none" xmlns="http://www.w3.org/2000/svg">
<path d="M22.358 12V1.696H24.024L27.44 7.744L28.518 9.928H28.588C28.504 8.864 28.378 7.618 28.378 6.498V1.696H29.918V12H28.252L24.836 5.924L23.758 3.768H23.688C23.772 4.832 23.898 6.022 23.898 7.142V12H22.358ZM35.5793 12.182C33.6753 12.182 31.9533 10.712 31.9533 8.164C31.9533 5.588 33.6753 4.104 35.5793 4.104C37.4833 4.104 39.2053 5.588 39.2053 8.164C39.2053 10.712 37.4833 12.182 35.5793 12.182ZM35.5793 10.866C36.7973 10.866 37.5533 9.788 37.5533 8.164C37.5533 6.526 36.7973 5.434 35.5793 5.434C34.3753 5.434 33.6193 6.526 33.6193 8.164C33.6193 9.788 34.3753 10.866 35.5793 10.866ZM44.3834 12V1.696H47.0574C50.2214 1.696 52.0274 3.446 52.0274 6.806C52.0274 10.152 50.2214 12 47.1414 12H44.3834ZM46.0074 10.67H46.9454C49.1574 10.67 50.3474 9.368 50.3474 6.806C50.3474 4.23 49.1574 3.012 46.9454 3.012H46.0074V10.67ZM55.8525 12.182C54.5225 12.182 53.5845 11.314 53.5845 9.956C53.5845 8.304 54.9845 7.45 58.1905 7.1C58.1765 6.204 57.8545 5.42 56.7205 5.42C55.9085 5.42 55.1525 5.784 54.4945 6.204L53.8925 5.112C54.6905 4.608 55.7685 4.104 57.0005 4.104C58.9185 4.104 59.8005 5.322 59.8005 7.366V12H58.4845L58.3445 11.118H58.3025C57.6025 11.72 56.7765 12.182 55.8525 12.182ZM56.3425 10.908C57.0145 10.908 57.5605 10.586 58.1905 10.012V8.122C55.9085 8.402 55.1385 8.976 55.1385 9.844C55.1385 10.6 55.6565 10.908 56.3425 10.908ZM64.4428 12.182C62.7068 12.182 62.1048 11.104 62.1048 9.48V5.588H60.9848V4.384L62.1748 4.3L62.3568 2.172H63.7148V4.3H65.7168V5.588H63.7148V9.494C63.7148 10.418 64.0368 10.894 64.8348 10.894C65.1008 10.894 65.4368 10.81 65.6608 10.712L65.9548 11.902C65.5208 12.042 65.0028 12.182 64.4428 12.182ZM68.8818 12.182C67.5518 12.182 66.6138 11.314 66.6138 9.956C66.6138 8.304 68.0138 7.45 71.2198 7.1C71.2058 6.204 70.8838 5.42 69.7498 5.42C68.9378 5.42 68.1818 5.784 67.5238 6.204L66.9218 5.112C67.7198 4.608 68.7978 4.104 70.0298 4.104C71.9478 4.104 72.8298 5.322 72.8298 7.366V12H71.5138L71.3738 11.118H71.3318C70.6318 11.72 69.8058 12.182 68.8818 12.182ZM69.3718 10.908C70.0438 10.908 70.5898 10.586 71.2198 10.012V8.122C68.9378 8.402 68.1678 8.976 68.1678 9.844C68.1678 10.6 68.6858 10.908 69.3718 10.908Z" fill="white"/>
<circle cx="7" cy="7" r="6.25" transform="matrix(1 0 0 -1 0 14)" stroke="#EB5A1C" stroke-width="1.5"/>
<path d="M11 3L3 11" stroke="#EB5A1C" stroke-width="1.5"/>
</svg>
