<svg width="28" height="28" viewBox="0 0 28 28" fill="none" xmlns="http://www.w3.org/2000/svg">
<rect x="0.5" y="0.5" width="27" height="27" rx="5.5" fill="white" stroke="#FFC7AA"/>
<rect x="6.69922" y="16.6002" width="14" height="7" rx="1.2" transform="rotate(-45 6.69922 16.6002)" stroke="#FF6F26"/>
<path d="M16.8817 12.0747C17.116 12.309 17.4959 12.309 17.7302 12.0747C17.9645 11.8404 17.9645 11.4605 17.7302 11.2262L16.8817 12.0747ZM14.0533 9.24627L16.8817 12.0747L17.7302 11.2262L14.9018 8.39774L14.0533 9.24627Z" fill="#FF6F26"/>
<path d="M14.0531 14.9031C14.2874 15.1374 14.6673 15.1374 14.9016 14.9031C15.1359 14.6688 15.1359 14.2889 14.9016 14.0546L14.0531 14.9031ZM11.2247 12.0747L14.0531 14.9031L14.9016 14.0546L12.0732 11.2262L11.2247 12.0747Z" fill="#FF6F26"/>
<path d="M11.2245 17.7316C11.4588 17.9659 11.8387 17.9659 12.073 17.7316C12.3073 17.4972 12.3073 17.1173 12.073 16.883L11.2245 17.7316ZM8.39605 14.9031L11.2245 17.7316L12.073 16.883L9.24458 14.0546L8.39605 14.9031Z" fill="#FF6F26"/>
<path d="M13.4165 10.5898L14.8307 12.004" stroke="#FF6F26" stroke-opacity="0.75" stroke-width="1.2" stroke-linecap="round"/>
<path d="M10.5884 13.4182L12.0026 14.8324" stroke="#FF6F26" stroke-opacity="0.75" stroke-width="1.2" stroke-linecap="round"/>
</svg>
