<svg width="28" height="28" viewBox="0 0 28 28" fill="none" xmlns="http://www.w3.org/2000/svg">
<rect x="0.5" y="0.5" width="27" height="27" rx="5.5" fill="#FA6B23" stroke="#CC5214"/>
<g filter="url(#filter0_d_1_685)">
<rect x="6.7002" y="16.5995" width="14" height="7" rx="1.2" transform="rotate(-45 6.7002 16.5995)" stroke="white"/>
<path d="M16.8827 12.074C17.117 12.3083 17.4969 12.3083 17.7312 12.074C17.9655 11.8397 17.9655 11.4598 17.7312 11.2255L16.8827 12.074ZM14.0543 9.24558L16.8827 12.074L17.7312 11.2255L14.9028 8.39706L14.0543 9.24558Z" fill="white"/>
<path d="M14.0541 14.9024C14.2884 15.1368 14.6683 15.1368 14.9026 14.9024C15.1369 14.6681 15.1369 14.2882 14.9026 14.0539L14.0541 14.9024ZM11.2256 12.074L14.0541 14.9024L14.9026 14.0539L12.0742 11.2255L11.2256 12.074Z" fill="white"/>
<path d="M11.2255 17.7309C11.4598 17.9652 11.8397 17.9652 12.074 17.7309C12.3083 17.4965 12.3083 17.1166 12.074 16.8823L11.2255 17.7309ZM8.39702 14.9024L11.2255 17.7309L12.074 16.8823L9.24555 14.0539L8.39702 14.9024Z" fill="white"/>
<path d="M13.4175 10.5891L14.8317 12.0033" stroke="white" stroke-opacity="0.75" stroke-width="1.2" stroke-linecap="round"/>
<path d="M10.5894 13.4175L12.0036 14.8317" stroke="white" stroke-opacity="0.75" stroke-width="1.2" stroke-linecap="round"/>
</g>
<defs>
<filter id="filter0_d_1_685" x="2.69727" y="2.69706" width="22.855" height="22.8551" filterUnits="userSpaceOnUse" color-interpolation-filters="sRGB">
<feFlood flood-opacity="0" result="BackgroundImageFix"/>
<feColorMatrix in="SourceAlpha" type="matrix" values="0 0 0 0 0 0 0 0 0 0 0 0 0 0 0 0 0 0 127 0" result="hardAlpha"/>
<feOffset/>
<feGaussianBlur stdDeviation="2"/>
<feComposite in2="hardAlpha" operator="out"/>
<feColorMatrix type="matrix" values="0 0 0 0 0 0 0 0 0 0 0 0 0 0 0 0 0 0 0.2 0"/>
<feBlend mode="normal" in2="BackgroundImageFix" result="effect1_dropShadow_1_685"/>
<feBlend mode="normal" in="SourceGraphic" in2="effect1_dropShadow_1_685" result="shape"/>
</filter>
</defs>
</svg>
