<svg width="43" height="43" viewBox="0 0 43 43" fill="none" xmlns="http://www.w3.org/2000/svg">
<circle opacity="0.75" cx="21.5" cy="21.5" r="21.5" fill="url(#paint0_linear_24_281)"/>
<path d="M17.7374 12.2208L28.8225 18.6208C29.4802 19.0005 29.7055 19.8414 29.3258 20.4991L26.1746 25.9572C25.7949 26.6149 24.9539 26.8402 24.2963 26.4605L13.2111 20.0605C12.5535 19.6808 12.3282 18.8399 12.7079 18.1822L15.8591 12.7241C16.2388 12.0664 17.0798 11.8411 17.7374 12.2208Z" stroke="white" stroke-width="1.25"/>
<path d="M28.4627 23.1811L31.6698 22.8543C32.1769 22.8027 32.5293 23.3472 32.2744 23.7886L30.3879 27.0561C30.133 27.4976 29.4853 27.4647 29.2765 26.9997L27.9559 24.0589C27.7813 23.67 28.0387 23.2243 28.4627 23.1811Z" stroke="white" stroke-width="1.25"/>
<rect x="17.4551" y="16.2027" width="3.74639" height="1.87319" transform="rotate(30 17.4551 16.2027)" fill="white"/>
<path d="M19 23.5C19 24.1667 19 24.7 19 25.5C19 26.5 18.5 28 16.5 28C14.9 28 15.5 28 14 28" stroke="white" stroke-width="1.2"/>
<path d="M11.6 25.6H12C12.7732 25.6 13.4 26.2268 13.4 27V29C13.4 29.7732 12.7732 30.4 12 30.4H11.6V25.6Z" stroke="white" stroke-width="1.2"/>
<defs>
<linearGradient id="paint0_linear_24_281" x1="4.00077" y1="6.99996" x2="35.4999" y2="38.4991" gradientUnits="userSpaceOnUse">
<stop stop-color="#30EFE9"/>
<stop offset="1" stop-color="#097FC4"/>
</linearGradient>
</defs>
</svg>
