<svg width="43" height="43" viewBox="0 0 43 43" fill="none" xmlns="http://www.w3.org/2000/svg">
<circle opacity="0.66" cx="21.5" cy="21.5" r="21.5" fill="url(#paint0_linear_4_1226)"/>
<mask id="path-2-inside-1_4_1226" fill="white">
<path fill-rule="evenodd" clip-rule="evenodd" d="M25.6364 26.0597C27.08 24.8675 28 23.0639 28 21.0455C28 17.4556 25.0899 14.5455 21.5 14.5455C17.9101 14.5455 15 17.4556 15 21.0455C15 23.0639 15.92 24.8675 17.3636 26.0597C17.3833 26.0759 17.4033 26.0924 17.4237 26.109C17.8967 26.4964 18.5455 27.0277 18.5455 28.7273V29.3182V31.2727C18.5455 31.825 18.9932 32.2727 19.5455 32.2727H23.4545C24.0068 32.2727 24.4545 31.825 24.4545 31.2727V29.3182L24.4545 28.7273C24.4545 28.7261 24.4545 28.725 24.4545 28.7238C24.4555 27.0263 25.1449 26.462 25.5819 26.1044C25.6005 26.0892 25.6187 26.0743 25.6364 26.0597Z"/>
</mask>
<path d="M25.6364 26.0597L24.9996 25.2887L24.9996 25.2887L25.6364 26.0597ZM17.3636 26.0597L18.0004 25.2887L18.0004 25.2887L17.3636 26.0597ZM17.4237 26.109L16.7901 26.8827L16.7901 26.8827L17.4237 26.109ZM24.4545 29.3182H25.4545V29.3182L24.4545 29.3182ZM24.4545 28.7273H23.4545V28.7273L24.4545 28.7273ZM24.4545 28.7238L23.4545 28.7233V28.7238H24.4545ZM25.5819 26.1044L26.2152 26.8783L26.2152 26.8783L25.5819 26.1044ZM27 21.0455C27 22.753 26.223 24.2783 24.9996 25.2887L26.2731 26.8308C27.9369 25.4567 29 23.3748 29 21.0455H27ZM21.5 15.5455C24.5376 15.5455 27 18.0079 27 21.0455H29C29 16.9033 25.6421 13.5455 21.5 13.5455V15.5455ZM16 21.0455C16 18.0079 18.4624 15.5455 21.5 15.5455V13.5455C17.3579 13.5455 14 16.9033 14 21.0455H16ZM18.0004 25.2887C16.777 24.2783 16 22.753 16 21.0455H14C14 23.3748 15.0631 25.4567 16.7269 26.8308L18.0004 25.2887ZM18.0573 25.3354C18.0366 25.3185 18.0182 25.3034 18.0004 25.2887L16.7269 26.8308C16.7484 26.8485 16.77 26.8663 16.7901 26.8827L18.0573 25.3354ZM19.5455 28.7273C19.5455 27.7476 19.3574 27.012 19.0337 26.4361C18.712 25.8639 18.298 25.5325 18.0573 25.3354L16.7901 26.8827C17.0223 27.0729 17.1692 27.2009 17.2902 27.4161C17.4091 27.6276 17.5455 28.0074 17.5455 28.7273H19.5455ZM19.5455 29.3182V28.7273H17.5455V29.3182H19.5455ZM19.5455 31.2727V29.3182H17.5455V31.2727H19.5455ZM19.5455 31.2727H19.5455H17.5455C17.5455 32.3773 18.4409 33.2727 19.5455 33.2727V31.2727ZM23.4545 31.2727H19.5455V33.2727H23.4545V31.2727ZM23.4545 31.2727V33.2727C24.5591 33.2727 25.4545 32.3773 25.4545 31.2727H23.4545ZM23.4545 29.3182V31.2727H25.4545V29.3182H23.4545ZM23.4545 28.7273L23.4545 29.3182L25.4545 29.3182L25.4545 28.7273L23.4545 28.7273ZM23.4545 28.7238C23.4545 28.7241 23.4545 28.7245 23.4545 28.7251C23.4545 28.7257 23.4545 28.7265 23.4545 28.7273H25.4545C25.4545 28.7269 25.4545 28.7266 25.4545 28.726C25.4545 28.7254 25.4545 28.7246 25.4545 28.7238H23.4545ZM24.9485 25.3306C24.7219 25.5161 24.3119 25.8452 23.9862 26.416C23.6579 26.9913 23.4551 27.7342 23.4545 28.7233L25.4545 28.7244C25.4549 28.0159 25.5973 27.6279 25.7232 27.4073C25.8517 27.1822 26.0049 27.0504 26.2152 26.8783L24.9485 25.3306ZM24.9996 25.2887C24.9839 25.3016 24.9675 25.315 24.9485 25.3306L26.2152 26.8783C26.2335 26.8633 26.2535 26.847 26.2731 26.8308L24.9996 25.2887Z" fill="white" mask="url(#path-2-inside-1_4_1226)"/>
<path opacity="0.5" d="M28 21.0455C28 23.0639 27.08 24.8675 25.6364 26.0597C25.2047 26.4162 24.4545 26.9545 24.4545 28.7273C23.6292 29.1066 22.4679 27.5455 21.5 27.5455C20.5942 27.5455 19.3289 29.062 18.5455 28.7273C18.5455 26.9545 17.8396 26.4528 17.3636 26.0597C15.92 24.8675 15 23.0639 15 21.0455C15 17.4556 17.9101 14.5455 21.5 14.5455C25.0899 14.5455 28 17.4556 28 21.0455Z" fill="url(#paint1_linear_4_1226)"/>
<path opacity="0.75" d="M20 32H23V33C23 33.2761 22.7761 33.5 22.5 33.5H20.5C20.2239 33.5 20 33.2761 20 33V32Z" fill="white"/>
<rect opacity="0.75" x="19" y="27" width="5" height="1" fill="white"/>
<rect opacity="0.75" x="19" y="29" width="5" height="1" fill="white"/>
<path d="M21.5 10.5V12.5" stroke="white" stroke-width="1.4" stroke-linecap="round"/>
<path d="M13.293 13.2929L14.7072 14.7071" stroke="white" stroke-width="1.4" stroke-linecap="round"/>
<path d="M30.4143 13.2929L29.0001 14.7071" stroke="white" stroke-width="1.4" stroke-linecap="round"/>
<path d="M32 21L30 21" stroke="white" stroke-width="1.4" stroke-linecap="round"/>
<path d="M13 21L11 21" stroke="white" stroke-width="1.4" stroke-linecap="round"/>
<defs>
<linearGradient id="paint0_linear_4_1226" x1="0" y1="0" x2="43" y2="0" gradientUnits="userSpaceOnUse">
<stop stop-color="#FFA41C"/>
<stop offset="1" stop-color="#FB6422"/>
</linearGradient>
<linearGradient id="paint1_linear_4_1226" x1="16" y1="14" x2="23.5" y2="24.5" gradientUnits="userSpaceOnUse">
<stop stop-color="white"/>
<stop offset="1" stop-color="white" stop-opacity="0"/>
</linearGradient>
</defs>
</svg>
