<svg width="43" height="43" viewBox="0 0 43 43" fill="none" xmlns="http://www.w3.org/2000/svg">
<circle opacity="0.75" cx="21.5" cy="21.5" r="21.5" fill="url(#paint0_linear_24_347)"/>
<path fill-rule="evenodd" clip-rule="evenodd" d="M21.4998 20.2487C22.3282 20.2487 22.9998 19.5771 22.9998 18.7487C22.9998 17.9203 22.3282 17.2487 21.4998 17.2487C20.6713 17.2487 19.9998 17.9203 19.9998 18.7487C19.9998 19.5771 20.6713 20.2487 21.4998 20.2487ZM21.4998 21.7487C21.0772 21.7487 20.7264 22.0753 20.6963 22.4968L20.0763 31.1775C20.0349 31.7563 20.4934 32.2487 21.0737 32.2487H21.9258C22.5061 32.2487 22.9646 31.7563 22.9232 31.1775L22.3032 22.4968C22.2731 22.0753 21.9223 21.7487 21.4998 21.7487Z" fill="white"/>
<path opacity="0.75" d="M24.7144 15.9142C25.3812 16.6697 25.7858 17.6621 25.7858 18.749C25.7858 19.836 25.3812 20.8284 24.7144 21.5839M18.2858 21.5839C17.619 20.8284 17.2144 19.836 17.2144 18.749C17.2144 17.6299 17.6433 16.6109 18.3459 15.8476" stroke="white" stroke-width="1.75" stroke-linecap="round"/>
<path d="M26.8572 13.5002C28.1827 14.8529 29 16.7055 29 18.7491C29 20.7926 28.1827 22.6453 26.8572 23.998M16.1429 23.998C14.8173 22.6453 14 20.7926 14 18.7491C14 16.7055 14.8173 14.8529 16.1429 13.5002" stroke="white" stroke-width="1.75" stroke-linecap="round"/>
<defs>
<linearGradient id="paint0_linear_24_347" x1="4.00077" y1="6.99996" x2="35.4999" y2="38.4991" gradientUnits="userSpaceOnUse">
<stop stop-color="#30EFE9"/>
<stop offset="1" stop-color="#097FC4"/>
</linearGradient>
</defs>
</svg>
