<svg width="32" height="62" viewBox="0 0 32 62" fill="none" xmlns="http://www.w3.org/2000/svg">
<path d="M1 7H13C19.6274 7 25 12.3726 25 19V43C25 49.6274 19.6274 55 13 55H1V7Z" fill="#2F313D"/>
<path d="M1 7H13C19.6274 7 25 12.3726 25 19V43C25 49.6274 19.6274 55 13 55H1" stroke="#414350"/>
<path opacity="0.8" d="M4.6002 20.8H2.6002C1.99069 20.8 1.46034 20.872 1 21.0014" stroke="white" stroke-width="0.8"/>
<path d="M1 42H14V43H1V42Z" fill="#B5B5B7"/>
<rect opacity="0.8" x="1" y="28" width="1" height="4" fill="url(#paint0_linear_178_3142)"/>
<path d="M1 32H3V32.5L1 33V32Z" fill="#E7E7E7" fill-opacity="0.905882"/>
<path d="M4.2002 21.2001C4.2002 20.3164 4.91654 19.6001 5.8002 19.6001H7.4002C8.28385 19.6001 9.0002 20.3164 9.0002 21.2001V22.0001H4.2002V21.2001Z" fill="url(#paint1_linear_178_3142)"/>
<path d="M5 22.8H8.2V22.8C8.2 23.2419 7.84183 23.6 7.4 23.6H5.8C5.35817 23.6 5 23.2419 5 22.8V22.8Z" fill="white"/>
<path opacity="0.75" d="M5.8001 23.6001H7.4001L10.6001 42.0001H2.6001L5.8001 23.6001Z" fill="url(#paint2_linear_178_3142)"/>
<defs>
<linearGradient id="paint0_linear_178_3142" x1="1.5" y1="28" x2="1.5" y2="32" gradientUnits="userSpaceOnUse">
<stop stop-color="white"/>
<stop offset="0.0885122" stop-color="#E7E7E7" stop-opacity="0.75"/>
</linearGradient>
<linearGradient id="paint1_linear_178_3142" x1="6.6002" y1="19.6001" x2="6.6002" y2="22.0001" gradientUnits="userSpaceOnUse">
<stop stop-color="white"/>
<stop offset="0.523162" stop-color="#CACACA"/>
</linearGradient>
<linearGradient id="paint2_linear_178_3142" x1="6.6001" y1="23.6001" x2="6.6001" y2="42.0001" gradientUnits="userSpaceOnUse">
<stop stop-color="white"/>
<stop offset="1" stop-color="white" stop-opacity="0.1"/>
</linearGradient>
</defs>
</svg>
