<svg width="28" height="28" viewBox="0 0 28 28" fill="none" xmlns="http://www.w3.org/2000/svg">
<rect x="0.5" y="0.5" width="27" height="27" rx="5.5" fill="#FF841F" stroke="#FFA64D"/>
<path d="M20 19.9178C19.7158 19.9178 19.4433 19.8036 19.2424 19.6004C19.0415 19.3972 18.9286 19.1216 18.9286 18.8342C18.9286 18.5468 19.0415 18.2712 19.2424 18.0679C19.4433 17.8647 19.7158 17.7506 20 17.7506C20.2842 17.7506 20.5567 17.8647 20.7576 18.0679C20.9585 18.2712 21.0714 18.5468 21.0714 18.8342C21.0714 18.9765 21.0437 19.1174 20.9899 19.2488C20.936 19.3803 20.8571 19.4998 20.7576 19.6004C20.6581 19.701 20.54 19.7808 20.41 19.8353C20.28 19.8898 20.1407 19.9178 20 19.9178ZM20 15.8C19.2044 15.8 18.4413 16.1197 17.8787 16.6887C17.3161 17.2577 17 18.0295 17 18.8342C17 21.1098 20 23 20 23C20 23 23 21.1098 23 18.8342C23 18.0295 22.6839 17.2577 22.1213 16.6887C21.5587 16.1197 20.7956 15.8 20 15.8Z" fill="white"/>
<rect x="-0.183013" y="0.683013" width="10.0618" height="6.37452" rx="1.01757" transform="matrix(-0.866025 0.5 0.5 0.866025 16.6295 6.18301)" stroke="white"/>
<path opacity="0.75" d="M16 14.5V16.7495C16 17.1663 16.2606 18 17.3029 18C18.3452 18 16.7122 18 18 18" stroke="white"/>
<path opacity="0.75" d="M17 10.5L14.5 12" stroke="white"/>
<path d="M10.1402 14.7584C10.2534 14.5188 10.0924 14.24 9.82836 14.2182L6.90491 13.9771C6.59985 13.952 6.39211 14.2798 6.54516 14.5449L8.2157 17.4384C8.36875 17.7035 8.75657 17.6875 8.88731 17.4107L10.1402 14.7584Z" fill="white"/>
</svg>
