<svg width="108" height="20" viewBox="0 0 108 20" fill="none" xmlns="http://www.w3.org/2000/svg">
<mask id="path-1-inside-1_178_2875" fill="white">
<path fill-rule="evenodd" clip-rule="evenodd" d="M4 0C1.79086 0 0 1.79086 0 4V16C0 18.2091 1.79086 20 4 20H98V19.953C98.6047 20.0559 99.2469 19.8666 99.7133 19.3852L107.419 11.4322C108.188 10.6389 108.188 9.3527 107.419 8.55941L99.7133 0.606364C99.2469 0.124985 98.6047 -0.0642881 98 0.0385469V0H4Z"/>
</mask>
<path fill-rule="evenodd" clip-rule="evenodd" d="M4 0C1.79086 0 0 1.79086 0 4V16C0 18.2091 1.79086 20 4 20H98V19.953C98.6047 20.0559 99.2469 19.8666 99.7133 19.3852L107.419 11.4322C108.188 10.6389 108.188 9.3527 107.419 8.55941L99.7133 0.606364C99.2469 0.124985 98.6047 -0.0642881 98 0.0385469V0H4Z" fill="white"/>
<path d="M98 20V21H99V20H98ZM98 19.953L98.1677 18.9672L97 18.7686V19.953H98ZM99.7133 19.3852L100.432 20.0811L100.432 20.0811L99.7133 19.3852ZM107.419 11.4322L108.137 12.128V12.128L107.419 11.4322ZM107.419 8.55941L108.137 7.86356V7.86356L107.419 8.55941ZM99.7133 0.606364L98.9951 1.30221V1.30221L99.7133 0.606364ZM98 0.0385469H97V1.22297L98.1677 1.02439L98 0.0385469ZM98 0H99V-1H98V0ZM1 4C1 2.34315 2.34315 1 4 1V-1C1.23858 -1 -1 1.23858 -1 4H1ZM1 16V4H-1V16H1ZM4 19C2.34314 19 1 17.6569 1 16H-1C-1 18.7614 1.23857 21 4 21V19ZM98 19H4V21H98V19ZM97 19.953V20H99V19.953H97ZM98.9951 18.6894C98.7638 18.9281 98.4554 19.0161 98.1677 18.9672L97.8323 20.9389C98.754 21.0956 99.7301 20.805 100.432 20.0811L98.9951 18.6894ZM106.701 10.7363L98.9951 18.6894L100.432 20.0811L108.137 12.128L106.701 10.7363ZM106.701 9.25525C107.094 9.66073 107.094 10.3308 106.701 10.7363L108.137 12.128C109.281 10.9469 109.281 9.04467 108.137 7.86356L106.701 9.25525ZM98.9951 1.30221L106.701 9.25525L108.137 7.86356L100.432 -0.0894818L98.9951 1.30221ZM98.1677 1.02439C98.4554 0.975463 98.7638 1.06343 98.9951 1.30221L100.432 -0.0894797C99.7301 -0.813464 98.754 -1.10404 97.8323 -0.947298L98.1677 1.02439ZM97 0V0.0385469H99V0H97ZM4 1H98V-1H4V1Z" fill="#FF6F26" mask="url(#path-1-inside-1_178_2875)"/>
<path d="M12.5005 14.12C10.1805 14.12 9.52047 12.33 9.52047 10.07C9.52047 7.83 10.1905 6.02 12.5005 6.02C14.2805 6.02 15.3005 7.1 15.4005 8.73H14.5405C14.4505 7.53 13.7605 6.78 12.5005 6.78C10.8505 6.78 10.3905 8.06 10.3905 10.07C10.3905 12.15 10.9105 13.36 12.5005 13.36C13.7605 13.36 14.4505 12.62 14.5405 11.42H15.4005C15.3005 13.05 14.2805 14.12 12.5005 14.12ZM19.9341 14.12C17.6141 14.12 16.9541 12.33 16.9541 10.07C16.9541 7.83 17.6241 6.02 19.9341 6.02C21.7141 6.02 22.7341 7.1 22.8341 8.73H21.9741C21.8841 7.53 21.1941 6.78 19.9341 6.78C18.2841 6.78 17.8241 8.06 17.8241 10.07C17.8241 12.15 18.3441 13.36 19.9341 13.36C21.1941 13.36 21.8841 12.62 21.9741 11.42H22.8341C22.7341 13.05 21.7141 14.12 19.9341 14.12ZM23.8516 6.91V6.15H29.3016V6.91H27.0116V13.99H26.1416V6.91H23.8516ZM33.8227 13.99H32.8227L30.0727 6.15H30.9827L33.3227 12.91L35.6627 6.15H36.5627L33.8227 13.99ZM45.3418 9.81C45.3418 8.29 45.1918 7.2 44.7518 6.68C44.5218 6.42 44.2118 6.28 43.8418 6.28C43.4618 6.28 43.1518 6.42 42.9418 6.68C42.4918 7.2 42.3518 8.29 42.3518 9.81C42.3518 11.32 42.4918 12.42 42.9418 12.95C43.1518 13.21 43.4618 13.34 43.8418 13.34C44.2118 13.34 44.5218 13.21 44.7518 12.95C45.1918 12.42 45.3418 11.32 45.3418 9.81ZM41.5518 9.81C41.5518 8.13 41.7418 6.89 42.3518 6.21C42.7018 5.8 43.2218 5.58 43.8418 5.58C44.4718 5.58 44.9818 5.8 45.3418 6.21C45.9418 6.89 46.1318 8.13 46.1318 9.81C46.1318 11.48 45.9418 12.72 45.3418 13.41C44.9818 13.83 44.4718 14.02 43.8418 14.02C43.2218 14.02 42.7018 13.83 42.3518 13.41C41.7418 12.72 41.5518 11.48 41.5518 9.81ZM48.6218 5.58V9.34H50.0818V10.04H48.6218V14.53H47.8218V5.58H48.6218ZM55.5114 9.81C55.5114 8.29 55.3714 7.2 54.9214 6.68C54.7114 6.42 54.4014 6.28 54.0214 6.28C53.6514 6.28 53.3414 6.42 53.1114 6.68C52.6814 7.2 52.5314 8.29 52.5314 9.81C52.5314 11.32 52.6814 12.42 53.1114 12.95C53.3414 13.21 53.6514 13.34 54.0214 13.34C54.4014 13.34 54.7114 13.21 54.9214 12.95C55.3714 12.42 55.5114 11.32 55.5114 9.81ZM51.7314 9.81C51.7314 8.13 51.9314 6.89 52.5314 6.21C52.8814 5.8 53.3914 5.58 54.0214 5.58C54.6414 5.58 55.1614 5.8 55.5114 6.21C56.1214 6.89 56.3114 8.13 56.3114 9.81C56.3114 11.48 56.1214 12.72 55.5114 13.41C55.1614 13.83 54.6414 14.02 54.0214 14.02C53.3914 14.02 52.8814 13.83 52.5314 13.41C51.9314 12.72 51.7314 11.48 51.7314 9.81ZM58.9414 5.58V14.52H58.1314V5.58H58.9414ZM68.211 7.5V6.39H62.171V5.68H69.011V7.35C69.011 8.08 68.961 8.98 68.801 9.57H68.021C68.131 9.18 68.181 8.65 68.201 8.15C67.471 8.31 66.421 8.36 65.381 8.36H62.171V7.66H65.391C66.381 7.66 67.481 7.64 68.211 7.5ZM61.561 11.16V10.47H64.411V8.94H65.221V10.47H69.621V11.16H61.561ZM62.971 12.04V13.88H69.191V14.57H62.171V12.04H62.971ZM81.7908 8.78V6.44H79.1108V5.74H82.5908V8.75C82.5908 9.88 82.5208 11.12 82.3308 12.04H81.5208C81.7108 11.1 81.7908 9.86 81.7908 8.78ZM78.4508 5.74V8.65C78.4508 9.79 78.2708 11.11 78.0308 12.04H77.2208C77.4508 11.1 77.6408 9.77 77.6408 8.67V6.44H75.4908V5.74H78.4508ZM75.1208 14.13V13.43H83.0808V14.13H75.1208ZM88.9504 7.63V6.44H85.5504V5.74H89.7504V7.55C89.7504 10.94 88.4304 13.19 85.4904 13.97V13.22C87.8204 12.52 88.9504 10.57 88.9504 7.63ZM92.6504 5.58V14.52H91.8404V5.58H92.6504Z" fill="#1F212B"/>
</svg>
