<svg width="40" height="40" viewBox="0 0 40 40" fill="none" xmlns="http://www.w3.org/2000/svg">
<ellipse opacity="0.25" cx="20.5" cy="33.5" rx="10.5" ry="1.5" fill="#D9D9D9"/>
<path fill-rule="evenodd" clip-rule="evenodd" d="M31 20L38 25.5L31 31V27H7V24H31V20Z" fill="url(#paint0_linear_24_2724)"/>
<path fill-rule="evenodd" clip-rule="evenodd" d="M9 22L2 16.5L9 11L9 15L33 15L33 18L9 18L9 22Z" fill="url(#paint1_linear_24_2724)"/>
<circle cx="20.25" cy="8.75" r="2.75" fill="white"/>
<path d="M15.025 32L18.4 27.95L20 23" stroke="#A2A3A6" stroke-width="4" stroke-linecap="round"/>
<path d="M20 14L15.7 15.8L13 19" stroke="#A2A3A6" stroke-width="3.5" stroke-linecap="round"/>
<path d="M20 14V22.1" stroke="white" stroke-width="4" stroke-linecap="round"/>
<path d="M20 14L24 18" stroke="white" stroke-width="3.5" stroke-linecap="round"/>
<path d="M20 22L24 26" stroke="white" stroke-width="4" stroke-linecap="round"/>
<path d="M24 26L26 32" stroke="white" stroke-width="4" stroke-linecap="round"/>
<path d="M24 18L28.05 18" stroke="white" stroke-width="3.5" stroke-linecap="round"/>
<defs>
<linearGradient id="paint0_linear_24_2724" x1="38" y1="20" x2="7" y2="20" gradientUnits="userSpaceOnUse">
<stop stop-color="#FFA41C"/>
<stop offset="0.479167" stop-color="#FB6422"/>
<stop offset="1" stop-color="#171821"/>
</linearGradient>
<linearGradient id="paint1_linear_24_2724" x1="2" y1="22" x2="33" y2="22" gradientUnits="userSpaceOnUse">
<stop stop-color="#FFA41C"/>
<stop offset="0.505208" stop-color="#FB6422"/>
<stop offset="1" stop-color="#171821"/>
</linearGradient>
</defs>
</svg>
