<svg width="18" height="18" viewBox="0 0 18 18" fill="none" xmlns="http://www.w3.org/2000/svg">
<path d="M6.75 3.15002C6.75 2.65295 7.15295 2.25001 7.65002 2.25002L12.15 2.25009C12.6471 2.2501 13.05 2.65304 13.05 3.15009V4.95004C13.05 5.44708 12.6471 5.85002 12.15 5.85004L11.2264 5.85009C10.9599 5.8501 10.711 5.98332 10.5631 6.2051C10.2476 6.67844 9.552 6.67844 9.23644 6.2051C9.08859 5.98332 8.83968 5.8501 8.57314 5.85009L7.64996 5.85004C7.15292 5.85002 6.75 5.44708 6.75 4.95004V3.15002Z" fill="#C9C9CC"/>
<path d="M4.5 10.8V14.4" stroke="white" stroke-width="1.8"/>
<path d="M7.19995 9.00002V14.4" stroke="white" stroke-width="1.8"/>
<path d="M9.8999 7.20002V14.4" stroke="white" stroke-width="1.8"/>
<path d="M12.6001 9.00002V14.4" stroke="white" stroke-width="1.8"/>
<path d="M15.3 14.4H1.80005" stroke="#C9C9CC" stroke-width="1.125"/>
</svg>
