<svg width="11" height="15" viewBox="0 0 11 15" fill="none" xmlns="http://www.w3.org/2000/svg">
<path d="M5.5 7.54722C4.97904 7.54722 4.47942 7.33797 4.11104 6.9655C3.74267 6.59304 3.53571 6.08786 3.53571 5.56111C3.53571 5.03436 3.74267 4.52919 4.11104 4.15672C4.47942 3.78425 4.97904 3.575 5.5 3.575C6.02096 3.575 6.52058 3.78425 6.88896 4.15672C7.25733 4.52919 7.46429 5.03436 7.46429 5.56111C7.46429 5.82193 7.41348 6.0802 7.31476 6.32116C7.21605 6.56213 7.07136 6.78108 6.88896 6.9655C6.70656 7.14993 6.49002 7.29623 6.2517 7.39604C6.01338 7.49585 5.75795 7.54722 5.5 7.54722ZM5.5 0C4.04131 0 2.64236 0.585901 1.61091 1.62881C0.579463 2.67172 0 4.08621 0 5.56111C0 9.73194 5.5 14.1966 5.5 14.1966C5.5 14.1966 11 9.73194 11 5.56111C11 4.08621 10.4205 2.67172 9.38909 1.62881C8.35764 0.585901 6.95869 0 5.5 0Z" fill="url(#paint0_linear_24_2940)"/>
<defs>
<linearGradient id="paint0_linear_24_2940" x1="-1" y1="-2" x2="9.5" y2="11" gradientUnits="userSpaceOnUse">
<stop stop-color="white"/>
<stop offset="1" stop-color="#7B7C81"/>
</linearGradient>
</defs>
</svg>
