<svg width="22" height="22" viewBox="0 0 22 22" fill="none" xmlns="http://www.w3.org/2000/svg">
<rect x="5.5" y="7.5" width="10" height="9" rx="1.5" stroke="#DCDDE0"/>
<rect width="1" height="3" rx="0.5" transform="matrix(-1 0 0 1 9 6)" fill="#DCDDE0"/>
<rect width="9" height="1" transform="matrix(-1 0 0 1 15 10)" fill="#DCDDE0"/>
<rect width="1" height="1" transform="matrix(-1 0 0 1 13 12)" fill="#DCDDE0"/>
<rect opacity="0.5" width="1" height="1" transform="matrix(-1 0 0 1 13 14)" fill="#DCDDE0"/>
<rect width="1" height="1" transform="matrix(-1 0 0 1 11 12)" fill="#DCDDE0"/>
<rect width="1" height="1" transform="matrix(-1 0 0 1 11 14)" fill="#DCDDE0"/>
<rect opacity="0.5" width="1" height="1" transform="matrix(-1 0 0 1 9 12)" fill="#DCDDE0"/>
<rect width="1" height="1" transform="matrix(-1 0 0 1 9 14)" fill="#DCDDE0"/>
<rect width="1" height="3" rx="0.5" transform="matrix(-1 0 0 1 13 6)" fill="#DCDDE0"/>
</svg>
