<svg width="11" height="12" viewBox="0 0 11 12" fill="none" xmlns="http://www.w3.org/2000/svg">
<path d="M5.0013 6.86289C4.52757 6.86289 4.07325 6.67261 3.73828 6.33392C3.4033 5.99522 3.21512 5.53585 3.21512 5.05686C3.21512 4.57788 3.4033 4.11851 3.73828 3.77981C4.07325 3.44112 4.52757 3.25084 5.0013 3.25084C5.47502 3.25084 5.92934 3.44112 6.26431 3.77981C6.59929 4.11851 6.78747 4.57788 6.78747 5.05686C6.78747 5.29404 6.74127 5.52888 6.65151 5.748C6.56174 5.96712 6.43017 6.16621 6.26431 6.33392C6.09845 6.50162 5.90154 6.63465 5.68484 6.72541C5.46813 6.81617 5.23586 6.86289 5.0013 6.86289ZM5.0013 0C3.67487 0 2.40277 0.532775 1.46485 1.48112C0.526921 2.42947 0 3.7157 0 5.05686C0 8.84951 5.0013 12 5.0013 12C5.0013 12 10.0026 8.84951 10.0026 5.05686C10.0026 3.7157 9.47567 2.42947 8.53774 1.48112C7.59982 0.532775 6.32772 0 5.0013 0Z" fill="url(#paint0_linear_29_3132)"/>
<defs>
<linearGradient id="paint0_linear_29_3132" x1="8.63797" y1="8.63937" x2="1.81827" y2="0.909662" gradientUnits="userSpaceOnUse">
<stop stop-color="#FB6422"/>
<stop offset="1" stop-color="#FFA41C"/>
</linearGradient>
</defs>
</svg>
