<svg width="34" height="34" viewBox="0 0 34 34" fill="none" xmlns="http://www.w3.org/2000/svg">
<circle cx="17" cy="17" r="15.5" fill="#2C2D3B" stroke="#353745"/>
<path d="M23.024 19.7607C23.168 19.447 23.0304 19.076 22.7167 18.932C22.4029 18.788 22.0319 18.9256 21.8879 19.2393L23.024 19.7607ZM17 22.375C14.0315 22.375 11.625 19.9685 11.625 17H10.375C10.375 20.6589 13.3411 23.625 17 23.625V22.375ZM11.625 17C11.625 14.0315 14.0315 11.625 17 11.625V10.375C13.3411 10.375 10.375 13.3411 10.375 17H11.625ZM17 11.625C19.5037 11.625 21.609 13.3374 22.2057 15.6558L23.4162 15.3442C22.6808 12.4869 20.0878 10.375 17 10.375V11.625ZM21.8879 19.2393C21.038 21.0911 19.1683 22.375 17 22.375V23.625C19.6747 23.625 21.9779 22.04 23.024 19.7607L21.8879 19.2393Z" fill="#A7A9B8"/>
<path d="M23.5 12.5V15.5H20.5" stroke="#A7A9B8" stroke-width="1.25" stroke-linecap="round"/>
</svg>
