<svg width="52" height="52" viewBox="0 0 52 52" fill="none" xmlns="http://www.w3.org/2000/svg">
<ellipse cx="26" cy="46.5" rx="16" ry="4.5" fill="url(#paint0_radial_46_16909)"/>
<circle cx="26" cy="29" r="18" fill="url(#paint1_linear_46_16909)"/>
<circle cx="26" cy="29" r="17.75" stroke="#1877CE" stroke-opacity="0.1" stroke-width="0.5"/>
<path d="M22.75 33.9167C22.75 33.3184 23.235 32.8333 23.8333 32.8333H24.9167C25.515 32.8333 26 33.3184 26 33.9167V37.1667H22.75V33.9167Z" fill="url(#paint2_linear_46_16909)"/>
<path opacity="0.8" d="M24.375 32.8334V24.125C24.375 22.203 26 20.9167 28.1667 20.9167H30.875" stroke="white" stroke-width="1.08333"/>
<path d="M21.6699 38.25C21.6699 37.6517 22.1549 37.1667 22.7533 37.1667H26.0033C26.6016 37.1667 27.0866 37.6517 27.0866 38.25V39.3334H21.6699V38.25Z" fill="url(#paint3_linear_46_16909)"/>
<path d="M29.25 21.1333C29.25 20.4154 29.832 19.8333 30.55 19.8333H33.3667C34.0846 19.8333 34.6667 20.4154 34.6667 21.1333V21.675C34.6667 21.8545 34.5212 22 34.3417 22H29.575C29.3955 22 29.25 21.8545 29.25 21.675V21.1333Z" fill="url(#paint4_linear_46_16909)"/>
<path d="M30.3333 22H33.5833V22C33.5833 22.5983 33.0982 23.0833 32.4999 23.0833H31.4166C30.8183 23.0833 30.3333 22.5983 30.3333 22V22Z" fill="white"/>
<path opacity="0.75" d="M31.2001 23.0833H32.7167L35.7501 39.3333H28.1667L31.2001 23.0833Z" fill="url(#paint5_linear_46_16909)"/>
<circle cx="21.6123" cy="25.1958" r="1.18411" transform="rotate(-90 21.6123 25.1958)" fill="white"/>
<path d="M22.1705 22.2016C20.2086 22.2016 18.6182 23.792 18.6182 25.7539" stroke="white" stroke-width="1.18411" stroke-linecap="round"/>
<path d="M22.1706 19.8333C18.9007 19.8333 16.25 22.4841 16.25 25.7539" stroke="white" stroke-width="1.08333" stroke-linecap="round"/>
<circle cx="39.5" cy="15.5" r="5" fill="#F35050" stroke="white"/>
<rect x="39" y="13" width="1" height="3" rx="0.5" fill="white"/>
<rect x="39" y="17" width="1" height="1" rx="0.5" fill="white"/>
<defs>
<radialGradient id="paint0_radial_46_16909" cx="0" cy="0" r="1" gradientUnits="userSpaceOnUse" gradientTransform="translate(26 46.5) rotate(90) scale(5.64004 20.0535)">
<stop stop-color="#222837" stop-opacity="0.89"/>
<stop offset="0.614583" stop-color="#222837" stop-opacity="0"/>
</radialGradient>
<linearGradient id="paint1_linear_46_16909" x1="11.5" y1="13" x2="43" y2="47" gradientUnits="userSpaceOnUse">
<stop stop-color="#4EB1FD"/>
<stop offset="1" stop-color="#4139D4"/>
</linearGradient>
<linearGradient id="paint2_linear_46_16909" x1="24.375" y1="32.8333" x2="24.375" y2="37.1667" gradientUnits="userSpaceOnUse">
<stop stop-color="white"/>
<stop offset="0.127261" stop-color="#E7E7E7" stop-opacity="0.8"/>
</linearGradient>
<linearGradient id="paint3_linear_46_16909" x1="24.3783" y1="37.1667" x2="24.3783" y2="39.3334" gradientUnits="userSpaceOnUse">
<stop stop-color="white"/>
<stop offset="1" stop-color="#C7C7CE" stop-opacity="0.5"/>
</linearGradient>
<linearGradient id="paint4_linear_46_16909" x1="31.9583" y1="19.8333" x2="31.9583" y2="22" gradientUnits="userSpaceOnUse">
<stop stop-color="white"/>
<stop offset="0.523162" stop-color="#EDE3DD"/>
</linearGradient>
<linearGradient id="paint5_linear_46_16909" x1="31.9584" y1="23.0833" x2="31.9584" y2="39.3333" gradientUnits="userSpaceOnUse">
<stop stop-color="white"/>
<stop offset="1" stop-color="white" stop-opacity="0.1"/>
</linearGradient>
</defs>
</svg>
