<svg width="52" height="52" viewBox="0 0 52 52" fill="none" xmlns="http://www.w3.org/2000/svg">
<ellipse cx="26" cy="46.5" rx="15" ry="4.5" fill="url(#paint0_radial_16_149)" fill-opacity="0.75"/>
<path d="M38.726 33.5741C41.2439 30.9879 42.9588 27.6924 43.6537 24.1047C44.3487 20.517 43.9926 16.798 42.6303 13.4183C41.2681 10.0385 38.961 7.14974 36.0008 5.11728C33.0406 3.08483 29.5603 2 26 2C22.4397 2 18.9594 3.08483 15.9992 5.11728C13.039 7.14974 10.7319 10.0385 9.36966 13.4183C8.00744 16.798 7.6513 20.517 8.34627 24.1047C9.04125 27.6924 10.7561 30.9879 13.274 33.5741C15.782 36.1572 22.25 43.1466 26 47C29.75 43.1466 36.554 35.812 38.726 33.5741Z" fill="url(#paint1_linear_16_149)"/>
<path d="M38.726 33.5741C41.2439 30.9879 42.9588 27.6924 43.6537 24.1047C44.3487 20.517 43.9926 16.798 42.6303 13.4183C41.2681 10.0385 38.961 7.14974 36.0008 5.11728C33.0406 3.08483 29.5603 2 26 2C22.4397 2 18.9594 3.08483 15.9992 5.11728C13.039 7.14974 10.7319 10.0385 9.36966 13.4183C8.00744 16.798 7.6513 20.517 8.34627 24.1047C9.04125 27.6924 10.7561 30.9879 13.274 33.5741C15.782 36.1572 22.25 43.1466 26 47C29.75 43.1466 36.554 35.812 38.726 33.5741Z" fill="url(#paint2_linear_16_149)" fill-opacity="0.33" stroke="white" stroke-width="1.5" stroke-linecap="round" stroke-linejoin="round"/>
<path d="M22.75 24.9167C22.75 24.3184 23.235 23.8333 23.8333 23.8333H24.9167C25.515 23.8333 26 24.3184 26 24.9167V28.1667H22.75V24.9167Z" fill="url(#paint3_linear_16_149)"/>
<path opacity="0.8" d="M24.375 23.8333V15.125C24.375 13.203 26 11.9167 28.1667 11.9167H30.875" stroke="white" stroke-width="1.08333"/>
<path d="M21.6667 29.25C21.6667 28.6517 22.1518 28.1667 22.7501 28.1667H26.0001C26.5984 28.1667 27.0834 28.6517 27.0834 29.25V30.3333H21.6667V29.25Z" fill="url(#paint4_linear_16_149)"/>
<path d="M29.25 12.1333C29.25 11.4154 29.832 10.8333 30.55 10.8333H33.3667C34.0846 10.8333 34.6667 11.4154 34.6667 12.1333V12.675C34.6667 12.8545 34.5212 13 34.3417 13H29.575C29.3955 13 29.25 12.8545 29.25 12.675V12.1333Z" fill="url(#paint5_linear_16_149)"/>
<path d="M30.3333 13H33.5833C33.5833 13.5983 33.0982 14.0833 32.4999 14.0833H31.4166C30.8183 14.0833 30.3333 13.5983 30.3333 13Z" fill="white"/>
<path opacity="0.75" d="M31.2001 14.0833H32.7167L35.7501 30.3333H28.1667L31.2001 14.0833Z" fill="url(#paint6_linear_16_149)"/>
<circle cx="21.6123" cy="16.1957" r="1.18411" transform="rotate(-90 21.6123 16.1957)" fill="white"/>
<path d="M22.1705 13.2016C20.2086 13.2016 18.6182 14.792 18.6182 16.7539" stroke="white" stroke-width="1.18411" stroke-linecap="round"/>
<path d="M22.1706 10.8333C18.9007 10.8333 16.25 13.4841 16.25 16.7539" stroke="white" stroke-width="1.08333" stroke-linecap="round"/>
<defs>
<radialGradient id="paint0_radial_16_149" cx="0" cy="0" r="1" gradientUnits="userSpaceOnUse" gradientTransform="translate(26 46.5) rotate(90) scale(5.64004 18.8001)">
<stop stop-color="#222837" stop-opacity="0.89"/>
<stop offset="0.614583" stop-color="#222837" stop-opacity="0"/>
</radialGradient>
<linearGradient id="paint1_linear_16_149" x1="8" y1="2" x2="37.5719" y2="44.4105" gradientUnits="userSpaceOnUse">
<stop stop-color="#FFAB59"/>
<stop offset="0.479167" stop-color="#DE5536"/>
<stop offset="1" stop-color="#D7AB79"/>
</linearGradient>
<linearGradient id="paint2_linear_16_149" x1="26.0018" y1="1.94852" x2="26.0018" y2="45.8771" gradientUnits="userSpaceOnUse">
<stop stop-color="#FFE7B9" stop-opacity="0"/>
<stop offset="0.5" stop-color="#D95A13" stop-opacity="0"/>
<stop offset="1" stop-color="#CFE19A"/>
</linearGradient>
<linearGradient id="paint3_linear_16_149" x1="24.375" y1="23.8333" x2="24.375" y2="28.1667" gradientUnits="userSpaceOnUse">
<stop stop-color="white"/>
<stop offset="0.127261" stop-color="#E7E7E7" stop-opacity="0.8"/>
</linearGradient>
<linearGradient id="paint4_linear_16_149" x1="24.3751" y1="28.1667" x2="24.3751" y2="30.3333" gradientUnits="userSpaceOnUse">
<stop stop-color="white"/>
<stop offset="1" stop-color="#E7E7E7" stop-opacity="0.8"/>
</linearGradient>
<linearGradient id="paint5_linear_16_149" x1="31.9583" y1="10.8333" x2="31.9583" y2="13" gradientUnits="userSpaceOnUse">
<stop stop-color="white"/>
<stop offset="0.523162" stop-color="#EDE3DD"/>
</linearGradient>
<linearGradient id="paint6_linear_16_149" x1="31.9584" y1="14.0833" x2="31.9584" y2="30.3333" gradientUnits="userSpaceOnUse">
<stop stop-color="white"/>
<stop offset="1" stop-color="white" stop-opacity="0.1"/>
</linearGradient>
</defs>
</svg>
