<svg width="42" height="42" viewBox="0 0 42 42" fill="none" xmlns="http://www.w3.org/2000/svg">
<ellipse cx="21" cy="37.5577" rx="12.9231" ry="3.63462" fill="url(#paint0_radial_46_16817)"/>
<circle cx="21" cy="23.4231" r="14.5385" fill="url(#paint1_linear_46_16817)"/>
<circle cx="21" cy="23.4231" r="14.3365" stroke="#1877CE" stroke-opacity="0.1" stroke-width="0.403846"/>
<path d="M18.3749 27.3943C18.3749 26.911 18.7666 26.5193 19.2499 26.5193H20.1249C20.6081 26.5193 20.9999 26.911 20.9999 27.3943V30.0193H18.3749V27.3943Z" fill="url(#paint2_linear_46_16817)"/>
<path opacity="0.8" d="M19.6874 26.5192V19.4856C19.6874 17.9332 20.9999 16.8942 22.7499 16.8942H24.9374" stroke="white" stroke-width="0.875"/>
<path d="M17.5026 30.8942C17.5026 30.411 17.8943 30.0192 18.3776 30.0192H21.0026C21.4858 30.0192 21.8776 30.411 21.8776 30.8942V31.7692H17.5026V30.8942Z" fill="url(#paint3_linear_46_16817)"/>
<path d="M23.6249 17.0692C23.6249 16.4893 24.095 16.0192 24.6749 16.0192H26.9499C27.5298 16.0192 27.9999 16.4893 27.9999 17.0692V17.5067C27.9999 17.6517 27.8824 17.7692 27.7374 17.7692H23.8874C23.7424 17.7692 23.6249 17.6517 23.6249 17.5067V17.0692Z" fill="url(#paint4_linear_46_16817)"/>
<path d="M24.4999 17.7692H27.1249V17.7692C27.1249 18.2525 26.7331 18.6442 26.2499 18.6442H25.3749C24.8916 18.6442 24.4999 18.2525 24.4999 17.7692V17.7692Z" fill="white"/>
<path opacity="0.75" d="M25.1999 18.6443H26.4249L28.8749 31.7693H22.7499L25.1999 18.6443Z" fill="url(#paint5_linear_46_16817)"/>
<circle cx="17.4562" cy="20.3504" r="0.956399" transform="rotate(-90 17.4562 20.3504)" fill="white"/>
<path d="M17.9069 17.932C16.3223 17.932 15.0377 19.2166 15.0377 20.8012" stroke="white" stroke-width="0.956399" stroke-linecap="round"/>
<path d="M17.907 16.0192C15.266 16.0192 13.125 18.1602 13.125 20.8012" stroke="white" stroke-width="0.875" stroke-linecap="round"/>
<circle cx="31.9039" cy="12.5192" r="4.03846" fill="#F35050" stroke="white" stroke-width="0.807692"/>
<rect x="31.5001" y="10.5" width="0.807692" height="2.42308" rx="0.403846" fill="white"/>
<rect x="31.5001" y="13.7308" width="0.807692" height="0.807692" rx="0.403846" fill="white"/>
<defs>
<radialGradient id="paint0_radial_46_16817" cx="0" cy="0" r="1" gradientUnits="userSpaceOnUse" gradientTransform="translate(21 37.5577) rotate(90) scale(4.55542 16.197)">
<stop stop-color="#222837" stop-opacity="0.89"/>
<stop offset="0.614583" stop-color="#222837" stop-opacity="0"/>
</radialGradient>
<linearGradient id="paint1_linear_46_16817" x1="9.28847" y1="10.5" x2="34.7308" y2="37.9615" gradientUnits="userSpaceOnUse">
<stop stop-color="#4EB1FD"/>
<stop offset="1" stop-color="#4139D4"/>
</linearGradient>
<linearGradient id="paint2_linear_46_16817" x1="19.6874" y1="26.5193" x2="19.6874" y2="30.0193" gradientUnits="userSpaceOnUse">
<stop stop-color="white"/>
<stop offset="0.127261" stop-color="#E7E7E7" stop-opacity="0.8"/>
</linearGradient>
<linearGradient id="paint3_linear_46_16817" x1="19.6901" y1="30.0192" x2="19.6901" y2="31.7692" gradientUnits="userSpaceOnUse">
<stop stop-color="white"/>
<stop offset="1" stop-color="#C7C7CE" stop-opacity="0.5"/>
</linearGradient>
<linearGradient id="paint4_linear_46_16817" x1="25.8124" y1="16.0192" x2="25.8124" y2="17.7692" gradientUnits="userSpaceOnUse">
<stop stop-color="white"/>
<stop offset="0.523162" stop-color="#EDE3DD"/>
</linearGradient>
<linearGradient id="paint5_linear_46_16817" x1="25.8124" y1="18.6443" x2="25.8124" y2="31.7693" gradientUnits="userSpaceOnUse">
<stop stop-color="white"/>
<stop offset="1" stop-color="white" stop-opacity="0.1"/>
</linearGradient>
</defs>
</svg>
